<svg id="Amazon_logo" data-name="Amazon logo" xmlns="http://www.w3.org/2000/svg" width="209.124" height="62.955" viewBox="0 0 209.124 62.955">
  <path id="Path_100" data-name="Path 100" d="M167.377,38.944c-12.167,8.99-29.764,13.722-44.928,13.722a81.407,81.407,0,0,1-54.91-20.909c-1.127-1.014-.113-2.433,1.262-1.622a110.586,110.586,0,0,0,54.91,14.555,109.523,109.523,0,0,0,41.909-8.562c2.028-.879,3.763,1.352,1.757,2.816" transform="translate(-37.611 10.288)" fill="#f90" fill-rule="evenodd"/>
  <path id="Path_101" data-name="Path 101" d="M122.267,34.411c-1.555-1.983-10.274-.946-14.195-.473-1.172.135-1.352-.9-.293-1.645,6.962-4.889,18.363-3.47,19.67-1.848,1.352,1.667-.338,13.068-6.85,18.5-1.014.856-1.96.406-1.51-.7,1.465-3.673,4.732-11.852,3.177-13.834" transform="translate(12.547 9.075)" fill="#f90" fill-rule="evenodd"/>
  <path id="Path_102" data-name="Path 102" d="M174.9,18.977V14.246a1.166,1.166,0,0,1,1.194-1.217h21.292a1.179,1.179,0,0,1,1.217,1.194v4.056c0,.676-.586,1.577-1.6,3l-11.041,15.7a23.746,23.746,0,0,1,12.167,2.614,2.18,2.18,0,0,1,1.127,1.848v5.047a1.139,1.139,0,0,1-1.577,1.082,24.537,24.537,0,0,0-22.487.045c-.744.383-1.51-.406-1.51-1.1v-4.8a5.644,5.644,0,0,1,.789-3.267l12.775-18.273H176.116a1.194,1.194,0,0,1-1.217-1.194M97.277,48.561H90.788a1.217,1.217,0,0,1-1.127-1.082V14.313A1.2,1.2,0,0,1,90.9,13.119h6.016a1.218,1.218,0,0,1,1.172,1.127v4.326h.135c1.577-4.191,4.506-6.151,8.517-6.151,4.056,0,6.579,1.96,8.4,6.151a9.558,9.558,0,0,1,16.426-2.524c2.028,2.794,1.622,6.85,1.622,10.41V47.367a1.212,1.212,0,0,1-1.239,1.194h-6.467a1.217,1.217,0,0,1-1.172-1.172V29.815a40.554,40.554,0,0,0-.18-6.219c-.5-2.253-1.938-2.862-3.808-2.862a4.3,4.3,0,0,0-3.875,2.7c-.653,1.69-.586,4.484-.586,6.354V47.367a1.218,1.218,0,0,1-1.262,1.194h-6.467a1.217,1.217,0,0,1-1.149-1.172V29.815c0-3.718.586-9.148-3.988-9.148-4.664,0-4.484,5.295-4.484,9.125V47.367a1.212,1.212,0,0,1-1.239,1.194M216.943,19.2c-4.754,0-5.07,6.489-5.07,10.522,0,4.056-.045,12.708,5.025,12.708,5,0,5.25-6.985,5.25-11.243a30.251,30.251,0,0,0-.969-8.787,4.038,4.038,0,0,0-4.236-3.2m-.045-6.782c9.6,0,14.8,8.247,14.8,18.7,0,10.139-5.746,18.138-14.8,18.138-9.441,0-14.555-8.224-14.555-18.476,0-10.342,5.182-18.363,14.555-18.363m27.263,36.141h-6.467a1.217,1.217,0,0,1-1.149-1.172V14.178a1.239,1.239,0,0,1,1.239-1.082h5.993a1.209,1.209,0,0,1,1.149.924v5.07h.113c1.825-4.529,4.371-6.692,8.832-6.692a8.476,8.476,0,0,1,7.548,3.921c1.69,2.636,1.69,7.12,1.69,10.32V47.5a1.239,1.239,0,0,1-1.239,1.036h-6.489a1.217,1.217,0,0,1-1.127-1.036V29.477c0-3.605.406-8.9-4.056-8.9a4.239,4.239,0,0,0-3.763,2.636A14.844,14.844,0,0,0,245.4,29.5V47.345a1.212,1.212,0,0,1-1.239,1.194m-79.717-.068a1.352,1.352,0,0,1-1.532.135,15.535,15.535,0,0,1-3.718-4.281c-3.537,3.605-6.084,4.687-10.658,4.687-5.453,0-9.689-3.38-9.689-10.072a10.973,10.973,0,0,1,6.895-10.567c3.515-1.532,8.427-1.8,12.167-2.253v-.811c0-1.555.135-3.38-.789-4.687a4.318,4.318,0,0,0-3.628-1.69c-2.479,0-4.664,1.262-5.2,3.875A1.365,1.365,0,0,1,147.162,24l-6.264-.676a1.126,1.126,0,0,1-.969-1.352c1.442-7.593,8.314-9.914,14.465-9.914,3.154,0,7.278.856,9.756,3.245,3.154,2.929,2.839,6.85,2.839,11.108V36.484c0,3.019,1.262,4.349,2.456,5.993a1.227,1.227,0,0,1-.023,1.712c-1.329,1.1-3.673,3.154-4.957,4.281h-.023ZM157.91,32.7c0,2.524.068,4.619-1.217,6.872a5.25,5.25,0,0,1-4.461,2.929c-2.479,0-3.943-1.893-3.943-4.687,0-5.5,4.957-6.489,9.621-6.489V32.7ZM79.59,48.471a1.352,1.352,0,0,1-1.532.135,16.34,16.34,0,0,1-3.718-4.281c-3.537,3.605-6.061,4.687-10.658,4.687-5.453,0-9.689-3.38-9.689-10.072a10.973,10.973,0,0,1,6.895-10.567c3.515-1.532,8.427-1.8,12.167-2.253v-.811c0-1.555.135-3.38-.789-4.687a4.277,4.277,0,0,0-3.605-1.69c-2.478,0-4.687,1.262-5.227,3.875A1.365,1.365,0,0,1,62.308,24l-6.264-.676a1.139,1.139,0,0,1-.969-1.352c1.442-7.593,8.337-9.914,14.488-9.914,3.154,0,7.255.856,9.734,3.245,3.154,2.929,2.862,6.85,2.862,11.108V36.484c0,3.019,1.239,4.349,2.433,5.993a1.226,1.226,0,0,1-.023,1.712c-1.329,1.1-3.673,3.154-4.957,4.281ZM73.055,32.7c0,2.524.068,4.619-1.194,6.872A5.288,5.288,0,0,1,67.355,42.5c-2.478,0-3.921-1.893-3.921-4.687,0-5.5,4.957-6.489,9.644-6.489V32.7Z" transform="translate(-53.987 -12.06)" fill="#221f1f" fill-rule="evenodd"/>
</svg>
