<svg id="Amazon_logo" data-name="Amazon logo" xmlns="http://www.w3.org/2000/svg" width="148.589" height="44.731" viewBox="0 0 148.589 44.731">
  <path id="Path_100" data-name="Path 100" d="M138.337,36.324c-8.645,6.388-21.149,9.75-31.923,9.75A57.842,57.842,0,0,1,67.4,31.217c-.8-.72-.08-1.729.9-1.153a78.575,78.575,0,0,0,39.015,10.342,77.819,77.819,0,0,0,29.778-6.084c1.441-.624,2.674.961,1.249,2" transform="translate(-46.134 -1.343)" fill="#9b9b9b" fill-rule="evenodd"/>
  <path id="Path_101" data-name="Path 101" d="M117.871,32.823c-1.1-1.409-7.3-.672-10.086-.336-.832.1-.961-.64-.208-1.169,4.947-3.474,13.048-2.465,13.976-1.313.961,1.185-.24,9.286-4.867,13.144-.72.608-1.393.288-1.073-.5,1.041-2.61,3.362-8.421,2.257-9.83" transform="translate(-22.081 -1.925)" fill="#9b9b9b" fill-rule="evenodd"/>
  <path id="Path_102" data-name="Path 102" d="M139.9,16.975V13.613a.828.828,0,0,1,.848-.865h15.129a.838.838,0,0,1,.865.849v2.882a4.789,4.789,0,0,1-1.137,2.129l-7.845,11.159a16.872,16.872,0,0,1,8.645,1.857,1.549,1.549,0,0,1,.8,1.313v3.586a.809.809,0,0,1-1.121.768,17.434,17.434,0,0,0-15.977.032c-.528.272-1.073-.288-1.073-.784v-3.41a4.01,4.01,0,0,1,.56-2.321l9.077-12.984h-7.909a.849.849,0,0,1-.865-.849M84.746,38H80.135a.865.865,0,0,1-.8-.768V13.661a.851.851,0,0,1,.881-.849H84.49a.866.866,0,0,1,.832.8v3.074h.1a6.059,6.059,0,0,1,6.052-4.371c2.882,0,4.675,1.393,5.972,4.371a6.791,6.791,0,0,1,11.671-1.793c1.441,1.985,1.153,4.867,1.153,7.4V37.147a.861.861,0,0,1-.881.849H104.79a.865.865,0,0,1-.832-.832V24.675a28.815,28.815,0,0,0-.128-4.419,2.393,2.393,0,0,0-2.706-2.033,3.057,3.057,0,0,0-2.754,1.921,14.54,14.54,0,0,0-.416,4.515V37.147a.865.865,0,0,1-.9.849H92.463a.864.864,0,0,1-.816-.832V24.675c0-2.642.416-6.5-2.834-6.5-3.314,0-3.186,3.762-3.186,6.484V37.147a.861.861,0,0,1-.881.849m85.026-20.86c-3.378,0-3.6,4.611-3.6,7.476,0,2.882-.032,9.029,3.57,9.029,3.554,0,3.73-4.963,3.73-7.989a21.494,21.494,0,0,0-.688-6.244,2.869,2.869,0,0,0-3.01-2.273m-.032-4.819c6.82,0,10.518,5.859,10.518,13.288,0,7.2-4.082,12.888-10.518,12.888-6.708,0-10.342-5.843-10.342-13.128,0-7.348,3.682-13.048,10.342-13.048M189.112,38h-4.595a.865.865,0,0,1-.816-.832v-23.6a.88.88,0,0,1,.881-.768h4.259a.859.859,0,0,1,.816.656v3.6h.08c1.3-3.218,3.106-4.755,6.276-4.755a6.023,6.023,0,0,1,5.363,2.786c1.2,1.873,1.2,5.059,1.2,7.332V37.243a.881.881,0,0,1-.881.736h-4.611a.865.865,0,0,1-.8-.736V24.435c0-2.562.288-6.324-2.882-6.324a3.012,3.012,0,0,0-2.674,1.873,10.547,10.547,0,0,0-.736,4.467v12.68a.861.861,0,0,1-.881.849m-56.642-.048a.961.961,0,0,1-1.089.1,11.038,11.038,0,0,1-2.642-3.042c-2.513,2.562-4.323,3.33-7.572,3.33-3.874,0-6.884-2.4-6.884-7.156a7.8,7.8,0,0,1,4.9-7.508c2.5-1.089,5.988-1.281,8.645-1.6v-.576a5.744,5.744,0,0,0-.56-3.33,3.068,3.068,0,0,0-2.578-1.2,3.5,3.5,0,0,0-3.7,2.754.97.97,0,0,1-.8.849l-4.451-.48a.8.8,0,0,1-.688-.961c1.025-5.4,5.908-7.044,10.278-7.044,2.241,0,5.171.608,6.932,2.305,2.241,2.081,2.017,4.867,2.017,7.893v7.156c0,2.145.9,3.09,1.745,4.259a.871.871,0,0,1-.016,1.217c-.945.784-2.61,2.241-3.522,3.042h-.016Zm-4.643-11.207c0,1.793.048,3.282-.865,4.883a3.73,3.73,0,0,1-3.17,2.081c-1.761,0-2.8-1.345-2.8-3.33,0-3.906,3.522-4.611,6.836-4.611v.977ZM72.179,37.931a.961.961,0,0,1-1.089.1,11.61,11.61,0,0,1-2.642-3.042c-2.513,2.562-4.307,3.33-7.572,3.33-3.874,0-6.884-2.4-6.884-7.156a7.8,7.8,0,0,1,4.9-7.508c2.5-1.089,5.988-1.281,8.645-1.6v-.576a5.744,5.744,0,0,0-.56-3.33,3.039,3.039,0,0,0-2.562-1.2A3.516,3.516,0,0,0,60.7,19.7a.97.97,0,0,1-.8.849l-4.451-.48a.81.81,0,0,1-.688-.961c1.025-5.4,5.924-7.044,10.294-7.044,2.241,0,5.155.608,6.916,2.305C74.212,16.447,74,19.232,74,22.258v7.156a6.269,6.269,0,0,0,1.729,4.259.871.871,0,0,1-.016,1.217c-.945.784-2.61,2.241-3.522,3.042ZM67.536,26.725c0,1.793.048,3.282-.848,4.883a3.757,3.757,0,0,1-3.2,2.081c-1.761,0-2.786-1.345-2.786-3.33,0-3.906,3.522-4.611,6.852-4.611v.977Z" transform="translate(-53.987 -12.06)" fill="#9b9b9b" fill-rule="evenodd"/>
</svg>
