<svg xmlns="http://www.w3.org/2000/svg" xmlns:xlink="http://www.w3.org/1999/xlink" width="56" height="56" viewBox="0 0 56 56">
  <defs>
    <linearGradient id="linear-gradient" x1="0.5" x2="0.5" y2="1" gradientUnits="objectBoundingBox">
      <stop offset="0" stop-color="#fc4aab"/>
      <stop offset="1" stop-color="#b83fd1"/>
    </linearGradient>
  </defs>
  <g id="analysis" transform="translate(0 0)">
    <path id="Union_4" data-name="Union 4" d="M12.469,56a3.285,3.285,0,0,1-3.281-3.281v-9.37a1.094,1.094,0,0,1,2.188,0v9.37a1.1,1.1,0,0,0,1.094,1.094h40.25a1.1,1.1,0,0,0,1.094-1.094V12.141H47.141a3.285,3.285,0,0,1-3.281-3.281V2.188H12.469a1.1,1.1,0,0,0-1.094,1.094V4.705a14.436,14.436,0,0,1,3.072-.33,1.094,1.094,0,0,1,1.094,1.094V18.822a1.094,1.094,0,0,1-1.094,1.094H1.094A1.094,1.094,0,0,1,0,18.822,14.471,14.471,0,0,1,9.188,5.366V3.281A3.285,3.285,0,0,1,12.469,0H44.953a1.094,1.094,0,0,1,.773.32l9.953,9.952a1.093,1.093,0,0,1,.321.773V52.719A3.285,3.285,0,0,1,52.719,56ZM2.236,17.729H13.354V6.611A12.28,12.28,0,0,0,2.236,17.729ZM46.047,8.859a1.1,1.1,0,0,0,1.094,1.094h5.126l-6.22-6.219ZM16.833,48.337a3.28,3.28,0,0,1,4.692-2.962l4.014-4.013a3.281,3.281,0,1,1,6.034-.18l4.184,4.184a3.275,3.275,0,0,1,2.833.015l6.3-6.3A3.286,3.286,0,1,1,46.371,40.7l-6.243,6.243a3.281,3.281,0,1,1-5.924-.032L30.138,42.84a3.271,3.271,0,0,1-3.073.089L23.074,46.92a3.281,3.281,0,1,1-6.24,1.417Zm2.187,0a1.094,1.094,0,1,0,1.879-.759l-.016-.015-.013-.014a1.092,1.092,0,0,0-1.85.788Zm17.044,0a1.094,1.094,0,1,0,1.094-1.094A1.095,1.095,0,0,0,36.065,48.332Zm-8.641-8.344a1.094,1.094,0,1,0,1.094-1.094A1.1,1.1,0,0,0,27.424,39.988ZM46.82,37.8a1.094,1.094,0,1,0,1.094-1.094A1.1,1.1,0,0,0,46.82,37.8ZM9.508,40.148a1.093,1.093,0,1,1,.773.321A1.1,1.1,0,0,1,9.508,40.148ZM3.918,22.74a1.094,1.094,0,0,1,1.094-1.094h12.26V9.386a1.094,1.094,0,0,1,1.094-1.094A14.447,14.447,0,1,1,3.918,22.74ZM18.365,35a12.254,12.254,0,0,0,9.4-20.117l-8.631,8.631h0a1.09,1.09,0,0,1-.773.32H6.154A12.277,12.277,0,0,0,18.365,35Zm1.094-14.9,6.763-6.763a12.2,12.2,0,0,0-6.763-2.808ZM46.654,27.57a1.093,1.093,0,1,1,.773.321A1.1,1.1,0,0,1,46.654,27.57Zm-9.979.321a1.094,1.094,0,1,1,0-2.187h5.773a1.094,1.094,0,1,1,0,2.187Zm0-5.25a1.094,1.094,0,1,1,0-2.187h13.36a1.094,1.094,0,1,1,0,2.187Zm0-5.25a1.094,1.094,0,0,1,0-2.188h13.36a1.094,1.094,0,1,1,0,2.188Z" transform="translate(0 0)" fill="url(#linear-gradient)"/>
  </g>
</svg>
