<svg xmlns="http://www.w3.org/2000/svg" width="254" height="152" viewBox="0 0 254 152">
  <g id="avansas_logo" data-name="avansas logo" transform="translate(1019.314 13650.046)">
    <path id="Path_18605" data-name="Path 18605" d="M47.219,34.392a28.148,28.148,0,1,0,39.751,0A28.215,28.215,0,0,0,47.219,34.392Z" transform="translate(-972.923 -13672.395)" fill="#fff" fill-rule="evenodd"/>
    <path id="Path_18606" data-name="Path 18606" d="M97.268,27.145A42.327,42.327,0,1,1,25.636,50.456,32.428,32.428,0,1,0,80.73,23.748a32.1,32.1,0,0,0-16.571-8.892A42.1,42.1,0,0,1,97.268,27.145Z" transform="translate(-963.661 -13664.781)" fill="#fff" fill-rule="evenodd"/>
    <g id="Group_4362" data-name="Group 4362" transform="translate(-1019.314 -13570.64)">
      <path id="Path_18607" data-name="Path 18607" d="M312.42,97.651H296.461l-3.726,7.628H280.4L303.117,60.8h18.014l4.086,44.478H313.139Zm-.514-8.659-1.362-19.276h-.154l-9.508,19.276Z" transform="translate(-280.4 -60.8)" fill="#fff"/>
      <path id="Path_18608" data-name="Path 18608" d="M499.874,112.6l-14.262,31.156H469.653L467.7,112.6h10.613l.437,24.327h.308l10.3-24.327Z" transform="translate(-419.567 -99.251)" fill="#fff"/>
      <path id="Path_18609" data-name="Path 18609" d="M596.38,142.939l1.362-4.613h-.385c-1.285,3.3-4.626,4.974-10,4.974a16.27,16.27,0,0,1-6.5-.979c-2.03-.979-3.058-2.757-3.058-5.36a15.786,15.786,0,0,1,.334-3.3c.771-3.634,2.287-6.21,4.5-7.731,2.03-1.392,4.96-2.087,8.763-2.087a18.989,18.989,0,0,1,4.857.438,3.523,3.523,0,0,1,2.9,3.067h.488l1.105-4.9a10.438,10.438,0,0,0,.283-2.294c0-1.623-1.285-2.422-3.88-2.422-2.775,0-4.42,1.108-4.96,3.35H582.04c.951-4.278,3.032-7.087,6.27-8.427q2.93-1.16,10.1-1.16c4.651,0,7.889.412,9.662,1.211,2.133,1.005,3.212,2.964,3.212,5.875a24.725,24.725,0,0,1-.591,4.922l-4.163,19.456-10.151-.026ZM593.5,130.028c-2.955,0-4.651,1.108-5.14,3.3-.026.335-.051.644-.051.928,0,1.624,1.259,2.448,3.778,2.448a11.137,11.137,0,0,0,4.086-.49,4.23,4.23,0,0,0,2.339-3.3,5.576,5.576,0,0,0,.051-.722c0-1.005-.642-1.649-1.953-1.933A13.724,13.724,0,0,0,593.5,130.028Z" transform="translate(-501.374 -98.435)" fill="#fff"/>
      <path id="Path_18610" data-name="Path 18610" d="M716.656,111.635h10.176l-1.259,5.8h.437a10.987,10.987,0,0,1,4.266-4.819A13.107,13.107,0,0,1,736.6,111.3c5.5,0,8.249,2.216,8.249,6.623a18.078,18.078,0,0,1-.385,3.35l-4.549,21.518H729.736l4.112-19.173a11.132,11.132,0,0,0,.18-1.855c0-1.752-1.182-2.629-3.521-2.629a6.139,6.139,0,0,0-4.729,1.752,10.343,10.343,0,0,0-2,4.767l-3.6,17.137H710Z" transform="translate(-599.601 -98.286)" fill="#fff"/>
      <path id="Path_18611" data-name="Path 18611" d="M880.32,120.426h-9.611a2.127,2.127,0,0,0-1.1-2.345,6.638,6.638,0,0,0-2.467-.283c-2.493,0-4.086.18-4.754.541a2.753,2.753,0,0,0-1.1,1.933,4.534,4.534,0,0,0-.1.979c0,1.108,1.645,1.675,4.908,1.752,5.011.129,8.378.49,10.1,1.108a4.969,4.969,0,0,1,3.444,5.1,16.642,16.642,0,0,1-.437,3.35q-1.311,6.223-6.322,8.659c-2.57,1.211-6.245,1.8-11.076,1.8q-7.093,0-9.406-.773c-2.724-.876-4.086-2.86-4.086-5.979a14.769,14.769,0,0,1,.437-3.3h10.151a8.879,8.879,0,0,0-.1,1.108,2,2,0,0,0,1.362,2.087,9.948,9.948,0,0,0,3.007.283,19.9,19.9,0,0,0,3.726-.206,2.926,2.926,0,0,0,2.184-2.525,6.118,6.118,0,0,0,.1-1.108,1.669,1.669,0,0,0-1.208-1.752,18.845,18.845,0,0,0-3.546-.206,37.854,37.854,0,0,1-8.48-.67c-3.444-.876-5.14-2.706-5.14-5.489a14.314,14.314,0,0,1,.385-3.118c.951-4.484,3.032-7.422,6.27-8.813,2.082-.9,5.782-1.366,11.127-1.366a30.457,30.457,0,0,1,8.095.773c2.827.85,4.214,2.525,4.214,5.051a10,10,0,0,1-.231,1.855Z" transform="translate(-702.36 -98.212)" fill="#fff"/>
      <path id="Path_18612" data-name="Path 18612" d="M996.68,142.939l1.362-4.613h-.385c-1.285,3.3-4.626,4.974-10,4.974a16.271,16.271,0,0,1-6.5-.979c-2.03-.979-3.058-2.757-3.058-5.36a15.79,15.79,0,0,1,.334-3.3c.771-3.634,2.287-6.21,4.5-7.731,2.03-1.392,4.96-2.087,8.763-2.087a18.989,18.989,0,0,1,4.857.438,3.524,3.524,0,0,1,2.9,3.067h.488l1.105-4.9a12.282,12.282,0,0,0,.283-2.294c0-1.623-1.285-2.422-3.88-2.422-2.776,0-4.446,1.108-4.96,3.35H982.34c.951-4.278,3.032-7.087,6.27-8.427q2.93-1.16,10.1-1.16c4.651,0,7.889.412,9.663,1.211,2.133,1.005,3.212,2.964,3.212,5.875a24.72,24.72,0,0,1-.591,4.922l-4.163,19.456-10.151-.026Zm-2.853-12.911c-2.955,0-4.651,1.108-5.14,3.3-.026.335-.051.644-.051.928,0,1.624,1.259,2.448,3.778,2.448a11.137,11.137,0,0,0,4.086-.49,4.287,4.287,0,0,0,2.339-3.3,5.6,5.6,0,0,0,.051-.722c0-1.005-.643-1.649-1.953-1.933A13.726,13.726,0,0,0,993.827,130.028Z" transform="translate(-798.804 -98.435)" fill="#fff"/>
      <path id="Path_18613" data-name="Path 18613" d="M1143.245,120.426h-9.611a2.109,2.109,0,0,0-1.131-2.345,6.549,6.549,0,0,0-2.467-.283c-2.493,0-4.086.18-4.754.541a2.753,2.753,0,0,0-1.105,1.933,4.541,4.541,0,0,0-.1.979c0,1.108,1.645,1.675,4.908,1.752,5.011.129,8.378.49,10.1,1.108a4.969,4.969,0,0,1,3.444,5.1,16.638,16.638,0,0,1-.437,3.35q-1.31,6.223-6.322,8.659c-2.544,1.211-6.245,1.8-11.076,1.8q-7.093,0-9.406-.773c-2.724-.876-4.086-2.86-4.086-5.979a14.772,14.772,0,0,1,.437-3.3h10.151a5.734,5.734,0,0,0-.1,1.108,2,2,0,0,0,1.362,2.087,9.945,9.945,0,0,0,3.007.283,20.252,20.252,0,0,0,3.752-.206,2.925,2.925,0,0,0,2.184-2.525,9.893,9.893,0,0,0,.1-1.108,1.669,1.669,0,0,0-1.208-1.752,18.847,18.847,0,0,0-3.546-.206,38.285,38.285,0,0,1-8.506-.67c-3.418-.876-5.139-2.706-5.139-5.489a14.328,14.328,0,0,1,.385-3.118c.951-4.484,3.032-7.422,6.271-8.813,2.081-.9,5.782-1.366,11.1-1.366a30.457,30.457,0,0,1,8.095.773c2.827.85,4.214,2.525,4.214,5.051a9.993,9.993,0,0,1-.231,1.855Z" transform="translate(-897.7 -98.212)" fill="#fff"/>
    </g>
    <path id="Path_18614" data-name="Path 18614" d="M1237.72,90.31a3.406,3.406,0,0,1-2.518-.953,3.287,3.287,0,0,1-1-2.474,3.742,3.742,0,0,1,.1-.9,5.351,5.351,0,0,1,1.9-3.092,5.151,5.151,0,0,1,3.366-1.288,3.445,3.445,0,0,1,2.518.953,3.286,3.286,0,0,1,1,2.474,5.221,5.221,0,0,1-.077.928,5.415,5.415,0,0,1-1.928,3.067A5.02,5.02,0,0,1,1237.72,90.31Zm.206-.979a4.025,4.025,0,0,0,2.6-.979,4.133,4.133,0,0,0,1.49-2.371,2.876,2.876,0,0,0,.077-.7,2.546,2.546,0,0,0-.771-1.933,2.713,2.713,0,0,0-1.953-.747,3.974,3.974,0,0,0-2.6.979,4.29,4.29,0,0,0-1.465,2.4,3.584,3.584,0,0,0-.077.7,2.546,2.546,0,0,0,.771,1.933A2.7,2.7,0,0,0,1237.926,89.331Zm1.619-2.989.694,1.881h-1.054l-.617-1.83h-.822l-.385,1.83h-.951l.951-4.484h2.236a3.029,3.029,0,0,1,1,.129.775.775,0,0,1,.488.8,2.869,2.869,0,0,1-.051.438A1.476,1.476,0,0,1,1239.545,86.342Zm-1.67-.644h1.311a1.413,1.413,0,0,0,.642-.129.9.9,0,0,0,.283-.541.232.232,0,0,0,.026-.129c0-.18-.1-.283-.308-.361a3.112,3.112,0,0,0-.591-.052h-1.079Z" transform="translate(-2008.405 -13646.88)" fill="#fff"/>
    <g id="Group_4363" data-name="Group 4363" transform="translate(-989.118 -13521.548)">
      <path id="Path_18615" data-name="Path 18615" d="M771.157,281.725a3.42,3.42,0,0,0-2.493-.825,5.569,5.569,0,0,0-1.67.232,3.478,3.478,0,0,0-1.259.67,3.9,3.9,0,0,0-.925,4.329,3.835,3.835,0,0,0,.591.825,10.356,10.356,0,0,0,1.054.928l.1.1c.874.7,1.285,1.314,1.259,1.881a1.5,1.5,0,0,1-.411.979,1.35,1.35,0,0,1-1,.335,1.121,1.121,0,0,1-.977-.387,1.74,1.74,0,0,1-.206-1.237l.051-.438c0-.1.026-.18.026-.232v-.129h-2.287l-.1.567-.077.541a2.967,2.967,0,0,0,.694,2.5,2.876,2.876,0,0,0,1.336.7l-.463,1.546h2.339l.437-1.469a3.766,3.766,0,0,0,3.289-3.659,3.13,3.13,0,0,0-.36-1.752,5.522,5.522,0,0,0-1.465-1.6l-.463-.335q-1.156-.85-1.079-1.7a1.215,1.215,0,0,1,.385-.876,1.229,1.229,0,0,1,.848-.309,1.112,1.112,0,0,1,1,.387,2.284,2.284,0,0,1,.154,1.443l-.026.335h2.313l.051-.541.026-.361A2.993,2.993,0,0,0,771.157,281.725Z" transform="translate(-669.033 -273.272)" fill="#fff"/>
      <path id="Path_18616" data-name="Path 18616" d="M920.557,281.725a3.42,3.42,0,0,0-2.493-.825,5.57,5.57,0,0,0-1.67.232,3.48,3.48,0,0,0-1.259.67,3.9,3.9,0,0,0-.925,4.329,3.831,3.831,0,0,0,.591.825,8.138,8.138,0,0,0,1.054.928l.1.1c.874.7,1.285,1.314,1.259,1.881a1.388,1.388,0,0,1-.411.979,1.35,1.35,0,0,1-1,.335,1.121,1.121,0,0,1-.977-.387,1.74,1.74,0,0,1-.206-1.237l.051-.438c0-.1.026-.18.026-.232v-.129h-2.287l-.1.567-.077.541a2.967,2.967,0,0,0,.694,2.5,2.875,2.875,0,0,0,1.336.7l-.463,1.546h2.339l.437-1.469a3.766,3.766,0,0,0,3.289-3.659,2.929,2.929,0,0,0-.36-1.752,5.178,5.178,0,0,0-1.465-1.6l-.463-.335q-1.156-.85-1.079-1.7a1.264,1.264,0,0,1,.385-.876,1.228,1.228,0,0,1,.848-.309q.771,0,1,.387a2.283,2.283,0,0,1,.154,1.443l-.026.335H921.2l.051-.541.026-.361A3.088,3.088,0,0,0,920.557,281.725Z" transform="translate(-780.04 -273.272)" fill="#fff"/>
      <path id="Path_18617" data-name="Path 18617" d="M400.83,282.588H397.9l4.6-15.488h2.93Z" transform="translate(-397.9 -263.028)" fill="#fff"/>
      <path id="Path_18618" data-name="Path 18618" d="M420.73,253.645H417.8l.694-2.345h2.93Z" transform="translate(-412.686 -251.3)" fill="#fff"/>
      <path id="Path_18619" data-name="Path 18619" d="M448.7,297.707l.617-1.984h.1l.463.026a1.263,1.263,0,0,0,.925-.335,1.914,1.914,0,0,0,.385-1.082l.026-.722v-.129l.18-11.081h2.7l-.591,8.4,3.932-8.4h2.852l-6.784,12.73a6.9,6.9,0,0,1-1.619,2.242,3.09,3.09,0,0,1-1.85.515H449.7a2.232,2.232,0,0,1-.257-.051Z" transform="translate(-435.645 -274.386)" fill="#fff"/>
      <path id="Path_18620" data-name="Path 18620" d="M493.556,288.843h2.518a4.912,4.912,0,0,1-.488,1.8,4.3,4.3,0,0,1-4.112,2.4,3.782,3.782,0,0,1-2.75-.85,3.086,3.086,0,0,1-.694-2.577,3.877,3.877,0,0,1,.051-.515c.026-.155.051-.258.077-.361a2.22,2.22,0,0,1,.077-.438c.026-.155.077-.335.129-.567a24.476,24.476,0,0,1,.668-2.577,14.423,14.423,0,0,1,.668-1.727,5.327,5.327,0,0,1,1.747-2.087,5.128,5.128,0,0,1,2.673-.644,3.624,3.624,0,0,1,2.621.773,3.05,3.05,0,0,1,.642,2.448,9.193,9.193,0,0,1-.231,1.443c-.129.541-.283,1.134-.488,1.778h-5.5c-.051.18-.154.515-.257.953a3.771,3.771,0,0,0-.129.515,7.051,7.051,0,0,0-.18,1.005,1.337,1.337,0,0,0,.231,1.057,1.142,1.142,0,0,0,.925.361,1.375,1.375,0,0,0,1.131-.541A3.563,3.563,0,0,0,493.556,288.843Zm.977-3.453c.051-.129.077-.309.129-.464a1.641,1.641,0,0,0,.077-.387l.1-.644a1.122,1.122,0,0,0-.206-.876,1.06,1.06,0,0,0-.848-.283,1.594,1.594,0,0,0-1.259.593,5.784,5.784,0,0,0-.874,2.113Z" transform="translate(-464.852 -273.124)" fill="#fff"/>
      <path id="Path_18621" data-name="Path 18621" d="M528.088,281.361l-.617,1.83h.051a4.882,4.882,0,0,1,1.311-1.649A2.931,2.931,0,0,1,530.58,281h.463l-.848,2.989-.36-.026h-.36a2.533,2.533,0,0,0-1.67.49,3.448,3.448,0,0,0-.951,1.649l-2.056,6.829h-2.7l3.469-11.545,2.518-.026Z" transform="translate(-490.183 -273.346)" fill="#fff"/>
      <path id="Path_18622" data-name="Path 18622" d="M548.6,282.736l3.469-11.545h2.7L551.3,282.736Zm3.958-13.143.668-2.294h2.724l-.694,2.294Z" transform="translate(-509.873 -263.177)" fill="#fff"/>
      <path id="Path_18623" data-name="Path 18623" d="M569.6,292.906h-2.7l3.469-11.545h2.493l-.308.979a7.458,7.458,0,0,1,1.465-1.005,3.262,3.262,0,0,1,1.439-.335,2.1,2.1,0,0,1,1.619.567,2.056,2.056,0,0,1,.463,1.624c0,.077-.026.155-.026.232a1.588,1.588,0,0,1-.077.283c-.051.232-.129.515-.231.876l-2.467,8.3h-2.673l2.416-8.066.154-.593.051-.309a.929.929,0,0,0-.18-.722.856.856,0,0,0-.694-.258,1.426,1.426,0,0,0-1.1.49,4.329,4.329,0,0,0-.771,1.623Z" transform="translate(-523.47 -273.346)" fill="#fff"/>
      <path id="Path_18624" data-name="Path 18624" d="M605.2,282.736l3.469-11.545h2.7L607.9,282.736Zm3.957-13.143.668-2.294h2.724l-.694,2.294Z" transform="translate(-551.928 -263.177)" fill="#fff"/>
      <path id="Path_18625" data-name="Path 18625" d="M626.2,292.906h-2.7l3.469-11.545h2.493l-.308.979a7.458,7.458,0,0,1,1.465-1.005,3.261,3.261,0,0,1,1.439-.335,2.1,2.1,0,0,1,1.619.567,2.056,2.056,0,0,1,.463,1.624c0,.077-.026.155-.026.232a1.8,1.8,0,0,1-.077.309c-.051.232-.129.515-.231.876l-2.467,8.3h-2.7l2.416-8.066.154-.593.051-.309a.929.929,0,0,0-.18-.722.949.949,0,0,0-.694-.258,1.426,1.426,0,0,0-1.105.49,4.765,4.765,0,0,0-.771,1.623Z" transform="translate(-565.525 -273.346)" fill="#fff"/>
      <path id="Path_18626" data-name="Path 18626" d="M693.365,292.152a3.933,3.933,0,0,1-1.156.953,2.992,2.992,0,0,1-1.336.309,2.594,2.594,0,0,1-2.082-.825,2.945,2.945,0,0,1-.565-2.293,4.125,4.125,0,0,1,1.054-2.551,5.447,5.447,0,0,1,2.75-1.392l.36-.077c1.953-.464,2.955-1.16,3.032-2.087a1,1,0,0,0-.231-.8,1.061,1.061,0,0,0-.848-.283,1.553,1.553,0,0,0-1.156.412,2.947,2.947,0,0,0-.694,1.34h-2.6a4.653,4.653,0,0,1,1.593-2.757,4.777,4.777,0,0,1,3.084-.9,4.3,4.3,0,0,1,2.724.722,2.23,2.23,0,0,1,.822,2.062c0,.1-.026.18-.026.258a1.311,1.311,0,0,0-.051.232l-.154.644-1.9,6.391-.154.67-.154.9h-2.493Zm1.131-4.69-.9.361c-1.722.7-2.621,1.495-2.7,2.319a1.344,1.344,0,0,0,.206,1,.979.979,0,0,0,.822.335,1.589,1.589,0,0,0,1.362-.747A11.033,11.033,0,0,0,694.5,287.462Z" transform="translate(-613.598 -273.495)" fill="#fff"/>
      <path id="Path_18627" data-name="Path 18627" d="M724.1,282.662l4.626-15.462h2.724L726.8,282.662Z" transform="translate(-640.273 -263.103)" fill="#fff"/>
      <path id="Path_18628" data-name="Path 18628" d="M742.6,293.945l3.469-11.545h2.7L745.3,293.945Z" transform="translate(-654.019 -274.386)" fill="#fff"/>
      <path id="Path_18629" data-name="Path 18629" d="M805.132,293.945H802.1l.129-11.545h2.7l-.54,8.5,3.88-8.5h2.852Z" transform="translate(-698.228 -274.386)" fill="#fff"/>
      <path id="Path_18630" data-name="Path 18630" d="M836.957,288.992h2.518a5.051,5.051,0,0,1-.488,1.83,4.436,4.436,0,0,1-1.028,1.34,4.391,4.391,0,0,1-3.084,1.057,3.782,3.782,0,0,1-2.75-.85,3.087,3.087,0,0,1-.694-2.577,3.9,3.9,0,0,1,.051-.515,2.743,2.743,0,0,1,.077-.361,2.285,2.285,0,0,1,.051-.438c.026-.155.077-.335.128-.567a24.494,24.494,0,0,1,.668-2.577,12.862,12.862,0,0,1,.668-1.727,5.056,5.056,0,0,1,1.747-2.062,5.126,5.126,0,0,1,2.673-.644,3.624,3.624,0,0,1,2.621.773,3.049,3.049,0,0,1,.642,2.448,9.173,9.173,0,0,1-.231,1.443c-.129.541-.283,1.134-.488,1.778h-5.474c-.051.18-.154.515-.257.953a3.8,3.8,0,0,0-.129.515,7.026,7.026,0,0,0-.18,1,1.336,1.336,0,0,0,.231,1.057,1.142,1.142,0,0,0,.925.361,1.375,1.375,0,0,0,1.131-.541A4.09,4.09,0,0,0,836.957,288.992Zm.976-3.453c.051-.129.077-.309.129-.464a1.638,1.638,0,0,0,.077-.387l.1-.644a1.122,1.122,0,0,0-.206-.876,1.06,1.06,0,0,0-.848-.283,1.594,1.594,0,0,0-1.259.593,5.783,5.783,0,0,0-.874,2.113h2.878Z" transform="translate(-720.004 -273.272)" fill="#fff"/>
      <path id="Path_18631" data-name="Path 18631" d="M871.487,281.361l-.617,1.83h.051a4.88,4.88,0,0,1,1.311-1.649A2.931,2.931,0,0,1,873.98,281h.463l-.848,2.989-.36-.026h-.36a2.533,2.533,0,0,0-1.67.49,3.323,3.323,0,0,0-.951,1.649l-2.056,6.829h-2.7l3.495-11.545,2.493-.026Z" transform="translate(-745.336 -273.346)" fill="#fff"/>
      <path id="Path_18632" data-name="Path 18632" d="M892,282.736l3.469-11.545h2.7L894.7,282.736Zm3.958-13.143.668-2.294h2.724l-.694,2.294Z" transform="translate(-765.026 -263.177)" fill="#fff"/>
      <path id="Path_18633" data-name="Path 18633" d="M965.2,297.707l.617-1.984h.1l.437.026a1.167,1.167,0,0,0,.925-.335,1.914,1.914,0,0,0,.385-1.082l.026-.722v-.129l.18-11.081h2.7l-.591,8.4,3.932-8.4h2.852l-6.784,12.73a6.9,6.9,0,0,1-1.619,2.242,3.09,3.09,0,0,1-1.85.515h-.334a2.228,2.228,0,0,1-.257-.051Z" transform="translate(-819.415 -274.386)" fill="#fff"/>
      <path id="Path_18634" data-name="Path 18634" d="M1010.156,288.992h2.518a5.049,5.049,0,0,1-.488,1.83,4.3,4.3,0,0,1-4.112,2.4,3.781,3.781,0,0,1-2.75-.85,3.087,3.087,0,0,1-.694-2.577,3.884,3.884,0,0,1,.051-.515,2.741,2.741,0,0,1,.077-.361,2.2,2.2,0,0,1,.077-.438c.026-.155.077-.335.128-.567a24.5,24.5,0,0,1,.668-2.577,12.878,12.878,0,0,1,.668-1.727,5.057,5.057,0,0,1,1.748-2.062,5.126,5.126,0,0,1,2.673-.644,3.624,3.624,0,0,1,2.621.773,3.05,3.05,0,0,1,.642,2.448,9.189,9.189,0,0,1-.231,1.443c-.129.541-.283,1.134-.488,1.778h-5.5c-.052.18-.129.515-.257.953a3.767,3.767,0,0,0-.128.515,7.04,7.04,0,0,0-.18,1,1.336,1.336,0,0,0,.231,1.057,1.141,1.141,0,0,0,.925.361,1.374,1.374,0,0,0,1.131-.541A4.932,4.932,0,0,0,1010.156,288.992Zm.951-3.453c.051-.129.077-.309.129-.464a1.645,1.645,0,0,0,.077-.387l.1-.644a1.122,1.122,0,0,0-.206-.876,1.06,1.06,0,0,0-.848-.283,1.594,1.594,0,0,0-1.259.593,5.783,5.783,0,0,0-.874,2.113h2.878Z" transform="translate(-848.695 -273.272)" fill="#fff"/>
      <path id="Path_18635" data-name="Path 18635" d="M1044.588,281.361l-.617,1.83h.052a4.879,4.879,0,0,1,1.31-1.649,2.932,2.932,0,0,1,1.748-.541h.463l-.848,2.989-.36-.026h-.36a2.533,2.533,0,0,0-1.67.49,3.324,3.324,0,0,0-.951,1.649l-2.056,6.829h-2.7l3.495-11.545,2.493-.026Z" transform="translate(-873.952 -273.346)" fill="#fff"/>
      <path id="Path_18636" data-name="Path 18636" d="M1065.1,282.736l3.469-11.545h2.7l-3.469,11.545Zm3.958-13.143.668-2.294h2.724l-.694,2.294Z" transform="translate(-893.642 -263.177)" fill="#fff"/>
      <path id="Path_18637" data-name="Path 18637" d="M427.758,281.725a3.42,3.42,0,0,0-2.493-.825,5.569,5.569,0,0,0-1.67.232,3.48,3.48,0,0,0-1.259.67,3.9,3.9,0,0,0-.925,4.329,3.835,3.835,0,0,0,.591.825,10.344,10.344,0,0,0,1.054.928l.1.1c.874.7,1.285,1.314,1.259,1.881a1.5,1.5,0,0,1-.411.979,1.35,1.35,0,0,1-1,.335,1.121,1.121,0,0,1-.976-.387,1.74,1.74,0,0,1-.206-1.237l.051-.464c0-.1.026-.18.026-.232v-.129h-2.287l-.1.567-.077.541a2.967,2.967,0,0,0,.694,2.5,2.658,2.658,0,0,0,1.336.7L421,294.584h2.339l.437-1.469a3.766,3.766,0,0,0,3.289-3.659,2.928,2.928,0,0,0-.36-1.752,5.178,5.178,0,0,0-1.465-1.6l-.463-.335q-1.156-.85-1.079-1.7a1.216,1.216,0,0,1,.385-.876,1.229,1.229,0,0,1,.848-.309,1.112,1.112,0,0,1,1,.386,2.283,2.283,0,0,1,.154,1.443l-.026.335h2.313l.051-.541.026-.361A2.964,2.964,0,0,0,427.758,281.725Z" transform="translate(-413.881 -273.272)" fill="#fff"/>
    </g>
  </g>
</svg>
