<svg xmlns="http://www.w3.org/2000/svg" xmlns:xlink="http://www.w3.org/1999/xlink" width="56.001" height="52" viewBox="0 0 56.001 52">
  <defs>
    <linearGradient id="linear-gradient" x1="0.5" x2="0.5" y2="1" gradientUnits="objectBoundingBox">
      <stop offset="0" stop-color="#fc4aab"/>
      <stop offset="1" stop-color="#b83fd1"/>
    </linearGradient>
  </defs>
  <g id="evidence" transform="translate(0.002 -19.34)">
    <path id="Union_3" data-name="Union 3" d="M-4557.109-2379.661a1.1,1.1,0,0,1-1.1-1.1,1.1,1.1,0,0,1,1.1-1.1h10.917v-47.6h-31.659v8.273a11.315,11.315,0,0,1,3.662-.606,11.446,11.446,0,0,1,11.4,11.459,11.446,11.446,0,0,1-11.4,11.459,11.313,11.313,0,0,1-3.662-.605v17.616h10.917a1.1,1.1,0,0,1,1.1,1.1,1.1,1.1,0,0,1-1.1,1.1h-10.917a2.2,2.2,0,0,1-2.191-2.2v-18.3a1.107,1.107,0,0,1,.043-.308,11.471,11.471,0,0,1-1.441-1.019l-1.96,1.968.354.355a2.21,2.21,0,0,1,0,3.114l-10.492,10.54a3.745,3.745,0,0,1-2.67,1.111,3.741,3.741,0,0,1-2.669-1.111,3.794,3.794,0,0,1-1.125-2.7,3.779,3.779,0,0,1,1.108-2.683l10.489-10.54a2.178,2.178,0,0,1,1.55-.646,2.171,2.171,0,0,1,1.549.646l.354.355,1.959-1.968a11.436,11.436,0,0,1-2.605-7.282,11.476,11.476,0,0,1,5.554-9.833v-9.294a2.2,2.2,0,0,1,2.191-2.2h31.659a2.2,2.2,0,0,1,2.192,2.2v47.6a2.2,2.2,0,0,1-2.192,2.2Zm-40.235-9.68a1.584,1.584,0,0,0-.465,1.127,1.582,1.582,0,0,0,.465,1.126,1.58,1.58,0,0,0,1.136.482,1.568,1.568,0,0,0,1.121-.466l6.949-6.981-2.256-2.267Zm8.5-8.537,2.257,2.269,1.993-2-2.258-2.267Zm5.441-12.454a9.246,9.246,0,0,0,9.215,9.258,9.247,9.247,0,0,0,9.213-9.258,9.246,9.246,0,0,0-9.213-9.258A9.245,9.245,0,0,0-4583.4-2410.332Zm9.485,22.318a1.1,1.1,0,0,1-1.1-1.1,1.1,1.1,0,0,1,1.1-1.1h23.793a1.1,1.1,0,0,1,1.1,1.1,1.1,1.1,0,0,1-1.1,1.1Zm0-6.315a1.1,1.1,0,0,1-1.1-1.1,1.1,1.1,0,0,1,1.1-1.1h23.793a1.1,1.1,0,0,1,1.1,1.1,1.1,1.1,0,0,1-1.1,1.1Zm11.483-6.316a1.1,1.1,0,0,1-1.1-1.1,1.1,1.1,0,0,1,1.1-1.1h12.31a1.1,1.1,0,0,1,1.1,1.1,1.1,1.1,0,0,1-1.1,1.1Zm2.875-6.315a1.1,1.1,0,0,1-1.1-1.1,1.1,1.1,0,0,1,1.1-1.1h9.435a1.1,1.1,0,0,1,1.1,1.1,1.1,1.1,0,0,1-1.1,1.1Zm0-6.315a1.1,1.1,0,0,1-1.1-1.1,1.1,1.1,0,0,1,1.1-1.1h9.435a1.1,1.1,0,0,1,1.1,1.1,1.1,1.1,0,0,1-1.1,1.1Zm-4.174-6.315a1.1,1.1,0,0,1-1.1-1.1,1.1,1.1,0,0,1,1.1-1.1h13.609a1.1,1.1,0,0,1,1.1,1.1,1.1,1.1,0,0,1-1.1,1.1Z" transform="translate(4600 2451)" fill="url(#linear-gradient)"/>
  </g>
</svg>
