<svg xmlns="http://www.w3.org/2000/svg" xmlns:xlink="http://www.w3.org/1999/xlink" width="56" height="50" viewBox="0 0 56 50">
  <defs>
    <linearGradient id="linear-gradient" x1="0.5" x2="0.5" y2="1" gradientUnits="objectBoundingBox">
      <stop offset="0" stop-color="#fc4aab"/>
      <stop offset="1" stop-color="#b83fd1"/>
    </linearGradient>
  </defs>
  <g id="Fast_Internet" data-name="Fast Internet" transform="translate(-1.946 -2.979)">
    <path id="Path_16741" data-name="Path 16741" d="M22.278,27.479H5.246A3.289,3.289,0,0,1,2.534,26.2a3.314,3.314,0,0,1-.379-3.041l3.21-9.589a1.33,1.33,0,0,1,1.677-.835,1.311,1.311,0,0,1,.844,1.659l-3.21,9.589a.78.78,0,0,0,0,.675.694.694,0,0,0,.562.194H22.278a1.313,1.313,0,1,1,0,2.626Z" transform="translate(0 15.753)" fill="url(#linear-gradient)"/>
    <path id="Path_16742" data-name="Path 16742" d="M44.462,28.685a1.366,1.366,0,0,1-.417-.066A1.31,1.31,0,0,1,43.2,26.96L50.02,6.505c.2-.614-.019-.874-.57-.874L12.6,5.6A2.676,2.676,0,0,0,10.3,7.3L7.677,15.2A1.329,1.329,0,0,1,6,16.042a1.31,1.31,0,0,1-.846-1.657l2.627-7.9a5.346,5.346,0,0,1,4.815-3.5l36.854.026a3.3,3.3,0,0,1,2.709,1.279,3.319,3.319,0,0,1,.379,3.043L45.722,27.785a1.325,1.325,0,0,1-1.26.9Z" transform="translate(5.196 0)" fill="url(#linear-gradient)"/>
    <path id="Path_16743" data-name="Path 16743" d="M5.2,16.064a1.331,1.331,0,0,1-1.074-.545,1.3,1.3,0,0,1-.184-1.18L5.424,9.9A1.321,1.321,0,0,1,6.413,9a1.335,1.335,0,0,1,1.28.419,1.3,1.3,0,0,1,.248,1.312L6.456,15.164a1.325,1.325,0,0,1-1.26.9Z" transform="translate(3.181 9.733)" fill="url(#linear-gradient)"/>
    <path id="Path_16744" data-name="Path 16744" d="M48.945,8.7,6.719,8.683a1.313,1.313,0,1,1,0-2.626l42.224.021a1.313,1.313,0,1,1,0,2.626Z" transform="translate(5.696 5.004)" fill="url(#linear-gradient)"/>
    <path id="Path_16758" data-name="Path 16758" d="M1.549.008C2.4.012,3.1.515,3.1,1.131S2.415,2.242,1.56,2.238.009,1.731.006,1.115.693,0,1.549.008Z" transform="translate(41.134 8.466) rotate(-38.141)" fill="url(#linear-gradient)"/>
    <path id="Path_16759" data-name="Path 16759" d="M1.549.008C2.4.012,3.1.515,3.1,1.131S2.415,2.242,1.56,2.238.009,1.731.006,1.115.693,0,1.549.008Z" transform="translate(41.134 8.466) rotate(-38.141)" fill="url(#linear-gradient)"/>
    <path id="Path_16760" data-name="Path 16760" d="M1.549.008C2.4.012,3.1.515,3.1,1.131S2.415,2.242,1.56,2.238.009,1.731.006,1.115.693,0,1.549.008Z" transform="translate(45.253 8.467) rotate(-38.141)" fill="url(#linear-gradient)"/>
    <path id="Path_16761" data-name="Path 16761" d="M1.549.008C2.4.012,3.1.515,3.1,1.131S2.415,2.242,1.56,2.238.009,1.731.006,1.115.693,0,1.549.008Z" transform="translate(49.367 8.466) rotate(-38.141)" fill="url(#linear-gradient)"/>
    <path id="Path_16745" data-name="Path 16745" d="M43.765,35.844H11.443a1.326,1.326,0,0,1-1.244-.858A17.587,17.587,0,0,1,9.1,28.81a18.511,18.511,0,0,1,37.021,0,17.657,17.657,0,0,1-1.1,6.176A1.326,1.326,0,0,1,43.765,35.844ZM12.4,33.219H42.81a15.1,15.1,0,0,0,.65-4.409,15.858,15.858,0,0,0-31.715,0,15.175,15.175,0,0,0,.65,4.409Z" transform="translate(11.825 12.211)" fill="url(#linear-gradient)"/>
    <path id="Path_16746" data-name="Path 16746" d="M16.9,15.212A1.32,1.32,0,0,1,15.574,13.9V11.8a1.327,1.327,0,0,1,2.653,0v2.1A1.32,1.32,0,0,1,16.9,15.212Z" transform="translate(22.527 12.205)" fill="url(#linear-gradient)"/>
    <path id="Path_16747" data-name="Path 16747" d="M20.915,16.489a1.327,1.327,0,0,1-1.225-.809,1.3,1.3,0,0,1,.286-1.43l1.5-1.478a1.336,1.336,0,0,1,1.876,0,1.3,1.3,0,0,1,0,1.857l-1.5,1.478A1.334,1.334,0,0,1,20.915,16.489Z" transform="translate(29.165 15.294)" fill="url(#linear-gradient)"/>
    <path id="Path_16748" data-name="Path 16748" d="M24.7,19.591H22.576a1.313,1.313,0,1,1,0-2.626H24.7a1.313,1.313,0,1,1,0,2.626Z" transform="translate(31.909 22.738)" fill="url(#linear-gradient)"/>
    <path id="Path_16749" data-name="Path 16749" d="M12.549,19.591H10.427a1.313,1.313,0,1,1,0-2.626h2.122a1.313,1.313,0,1,1,0,2.626Z" transform="translate(11.825 22.738)" fill="url(#linear-gradient)"/>
    <path id="Path_16750" data-name="Path 16750" d="M13.814,16.489a1.333,1.333,0,0,1-.936-.383l-1.494-1.479a1.3,1.3,0,0,1,0-1.857,1.336,1.336,0,0,1,1.876,0l1.494,1.478a1.3,1.3,0,0,1,.286,1.43,1.327,1.327,0,0,1-1.225.81Z" transform="translate(14.959 15.294)" fill="url(#linear-gradient)"/>
    <path id="Path_16751" data-name="Path 16751" d="M18.223,22.988a3.414,3.414,0,1,1,3.449-3.414A3.431,3.431,0,0,1,18.223,22.988Zm0-4.183a.788.788,0,1,0,.8.788.792.792,0,0,0-.8-.788Z" transform="translate(21.205 21.431)" fill="url(#linear-gradient)"/>
    <path id="Path_16752" data-name="Path 16752" d="M17.571,22.132a1.325,1.325,0,0,1-1.277-.95,1.307,1.307,0,0,1,.572-1.477l7.694-4.779a1.336,1.336,0,0,1,1.831.415,1.306,1.306,0,0,1-.419,1.812l-7.707,4.779a1.355,1.355,0,0,1-.692.2Z" transform="translate(23.632 19.097)" fill="url(#linear-gradient)"/>
    <path id="Path_16753" data-name="Path 16753" d="M16.178,15.293H3.327a1.313,1.313,0,1,1,0-2.626H16.178a1.313,1.313,0,1,1,0,2.626Z" transform="translate(0.089 15.751)" fill="url(#linear-gradient)"/>
    <path id="Path_16754" data-name="Path 16754" d="M28.021,11.6H3.276a1.313,1.313,0,1,1,0-2.626H28.021a1.313,1.313,0,1,1,0,2.626Z" transform="translate(0.004 9.755)" fill="url(#linear-gradient)"/>
    <path id="Path_16755" data-name="Path 16755" d="M14.525,21.772H4.327a1.313,1.313,0,1,1,0-2.626h10.2a1.313,1.313,0,1,1,0,2.626Z" transform="translate(1.742 26.284)" fill="url(#linear-gradient)"/>
    <path id="Path_16756" data-name="Path 16756" d="M17.371,23.647H15.337a1.313,1.313,0,1,1,0-2.626h2.035a1.313,1.313,0,1,1,0,2.626Z" transform="translate(19.942 29.332)" fill="url(#linear-gradient)"/>
    <path id="Path_16757" data-name="Path 16757" d="M20.168,23.647H9.585a1.313,1.313,0,1,1,0-2.626H20.168a1.313,1.313,0,1,1,0,2.626Z" transform="translate(10.434 29.332)" fill="url(#linear-gradient)"/>
  </g>
</svg>
