<svg xmlns="http://www.w3.org/2000/svg" xmlns:xlink="http://www.w3.org/1999/xlink" width="48" height="48" viewBox="0 0 48 48">
  <defs>
    <linearGradient id="linear-gradient" x1="0.5" x2="0.5" y2="1" gradientUnits="objectBoundingBox">
      <stop offset="0" stop-color="#fc4aab"/>
      <stop offset="1" stop-color="#b83fd1"/>
    </linearGradient>
    <clipPath id="clip-path">
      <path id="path1992" d="M0-682.665H48v48H0Z" transform="translate(0 682.665)" fill="url(#linear-gradient)"/>
    </clipPath>
  </defs>
  <g id="g1986" transform="translate(0 712.665)">
    <g id="g1988" transform="translate(0 -712.665)">
      <g id="g1990" transform="translate(0 0)" clip-path="url(#clip-path)">
        <g id="g1996" transform="translate(0 0)">
          <path id="path1998" d="M-317.333-614.665a24.027,24.027,0,0,1-24-24,24.027,24.027,0,0,1,24-24,24.027,24.027,0,0,1,24,24A24.027,24.027,0,0,1-317.333-614.665Zm0-45.187a21.211,21.211,0,0,0-21.187,21.188,21.211,21.211,0,0,0,21.188,21.188,21.211,21.211,0,0,0,21.188-21.187A21.211,21.211,0,0,0-317.333-659.853Z" transform="translate(341.333 662.665)" fill="url(#linear-gradient)"/>
        </g>
        <g id="g2000" transform="translate(9.235 14.437)">
          <path id="path2002" d="M-146.02-59.507a1.4,1.4,0,0,1-.455-.076,1.406,1.406,0,0,1-.876-1.785,6.14,6.14,0,0,1,5.811-4.156,6.141,6.141,0,0,1,5.81,4.152,1.406,1.406,0,0,1-.875,1.786,1.406,1.406,0,0,1-1.786-.875,3.328,3.328,0,0,0-3.149-2.25,3.328,3.328,0,0,0-3.149,2.252A1.407,1.407,0,0,1-146.02-59.507Z" transform="translate(147.426 65.524)" fill="url(#linear-gradient)"/>
        </g>
        <g id="g2004" transform="translate(27 14.437)">
          <path id="path2006" d="M-146.02-59.507a1.4,1.4,0,0,1-.455-.076,1.406,1.406,0,0,1-.876-1.785,6.14,6.14,0,0,1,5.811-4.156,6.141,6.141,0,0,1,5.81,4.152,1.406,1.406,0,0,1-.875,1.786,1.406,1.406,0,0,1-1.786-.875,3.328,3.328,0,0,0-3.149-2.25,3.328,3.328,0,0,0-3.149,2.252A1.407,1.407,0,0,1-146.02-59.507Z" transform="translate(147.426 65.524)" fill="url(#linear-gradient)"/>
        </g>
        <g id="g2008" transform="translate(14.149 29.672)">
          <path id="path2010" d="M-250.517-12.385a11.306,11.306,0,0,1-9.65-5.468,1.406,1.406,0,0,1,.484-1.929,1.406,1.406,0,0,1,1.929.484,8.479,8.479,0,0,0,7.238,4.1,8.477,8.477,0,0,0,7.248-4.119,1.406,1.406,0,0,1,1.928-.488,1.406,1.406,0,0,1,.488,1.928A11.3,11.3,0,0,1-250.517-12.385Z" transform="translate(260.368 20.003)" fill="url(#linear-gradient)"/>
        </g>
      </g>
    </g>
  </g>
</svg>
