<svg xmlns="http://www.w3.org/2000/svg" xmlns:xlink="http://www.w3.org/1999/xlink" width="48" height="56" viewBox="0 0 48 56">
  <defs>
    <linearGradient id="linear-gradient" x1="0.5" x2="0.5" y2="1" gradientUnits="objectBoundingBox">
      <stop offset="0" stop-color="#fc4aab"/>
      <stop offset="1" stop-color="#b83fd1"/>
    </linearGradient>
  </defs>
  <g id="g3435" transform="translate(-85.038 699.094)">
    <g id="g3437" transform="translate(85.038 -699.094)">
      <g id="Group_186" data-name="Group 186" transform="translate(0 0)">
        <path id="Union_5" data-name="Union 5" d="M0,47.57a8.571,8.571,0,0,1,13.942-6.539l.417-.468a2.357,2.357,0,0,1,3.294-.208,2.283,2.283,0,0,1,.211,3.25L16.67,44.944a8.306,8.306,0,0,1,.423,2.626A8.5,8.5,0,0,1,8.546,56,8.5,8.5,0,0,1,0,47.57Zm1.661,0a6.886,6.886,0,0,0,13.77,0,6.751,6.751,0,0,0-.095-1.131l-4.285,4.805a2.349,2.349,0,0,1-1.753.782H9.261a2.332,2.332,0,0,1-1.734-.8L4.515,47.756a2.283,2.283,0,0,1,.253-3.247,2.357,2.357,0,0,1,3.291.25l1.262,1.453,3.522-3.949A6.905,6.905,0,0,0,1.661,47.57ZM5.85,45.754a.658.658,0,0,0-.073.936l3.012,3.466a.675.675,0,0,0,.506.232l0,.819v-.819a.677.677,0,0,0,.505-.225l6.812-7.639a.658.658,0,0,0-.061-.937.669.669,0,0,0-.444-.165.678.678,0,0,0-.506.225L9.938,48a.838.838,0,0,1-1.254-.008L6.8,45.826a.677.677,0,0,0-.512-.232A.67.67,0,0,0,5.85,45.754Zm15.793,6.7a.819.819,0,1,1,0-1.639H38.964a.819.819,0,1,1,0,1.639Zm0-4.063a.819.819,0,1,1,0-1.639H47.169a.819.819,0,1,1,0,1.639Zm0-4.063a.819.819,0,1,1,0-1.639H47.169a.819.819,0,1,1,0,1.639ZM0,28a8.572,8.572,0,0,1,13.942-6.539l.417-.467a2.359,2.359,0,0,1,3.294-.208,2.283,2.283,0,0,1,.211,3.249L16.67,25.374A8.308,8.308,0,0,1,17.093,28a8.5,8.5,0,0,1-8.546,8.43A8.5,8.5,0,0,1,0,28Zm1.661,0a6.886,6.886,0,0,0,13.77,0,6.753,6.753,0,0,0-.095-1.131L14.33,28a.839.839,0,0,1-1.172.074.812.812,0,0,1-.075-1.156l3.533-3.963a.658.658,0,0,0-.061-.937.68.68,0,0,0-.95.06L9.938,28.433a.838.838,0,0,1-1.254-.008L6.8,26.256a.679.679,0,0,0-.949-.072.659.659,0,0,0-.073.936l3.012,3.466a.679.679,0,0,0,1.016.007l.771-.865a.839.839,0,0,1,1.172-.074.812.812,0,0,1,.075,1.156l-.771.865a2.355,2.355,0,0,1-3.525-.022L4.515,28.186a2.284,2.284,0,0,1,.253-3.247,2.356,2.356,0,0,1,3.291.25l1.262,1.453,3.522-3.949A6.906,6.906,0,0,0,1.661,28Zm19.982,4.882a.819.819,0,1,1,0-1.639H38.964a.819.819,0,1,1,0,1.639Zm0-4.063a.819.819,0,1,1,0-1.639H47.169a.819.819,0,1,1,0,1.639Zm0-4.063a.819.819,0,1,1,0-1.639H47.169a.819.819,0,1,1,0,1.639ZM0,8.43a8.3,8.3,0,0,1,.519-2.9.834.834,0,0,1,1.066-.488.816.816,0,0,1,.494,1.051A6.689,6.689,0,0,0,1.661,8.43a6.886,6.886,0,0,0,13.77,0A6.753,6.753,0,0,0,15.337,7.3L11.052,12.1a2.349,2.349,0,0,1-1.753.782H9.261a2.331,2.331,0,0,1-1.734-.8L4.515,8.616A2.283,2.283,0,0,1,4.768,5.37a2.357,2.357,0,0,1,3.291.25L9.322,7.072l3.522-3.949a6.96,6.96,0,0,0-8.9.259.838.838,0,0,1-1.173-.061.811.811,0,0,1,.061-1.157,8.638,8.638,0,0,1,11.114-.273l.417-.467a2.357,2.357,0,0,1,3.294-.208,2.283,2.283,0,0,1,.211,3.25L16.67,5.8a8.3,8.3,0,0,1,.423,2.626,8.5,8.5,0,0,1-8.546,8.43A8.5,8.5,0,0,1,0,8.43ZM5.85,6.614a.658.658,0,0,0-.073.936l3.012,3.466a.675.675,0,0,0,.506.232l0,.819v-.819a.677.677,0,0,0,.505-.225l6.812-7.639a.658.658,0,0,0-.061-.937.669.669,0,0,0-.444-.165.678.678,0,0,0-.506.225L9.938,8.863a.838.838,0,0,1-1.254-.008L6.8,6.686a.677.677,0,0,0-.512-.232A.67.67,0,0,0,5.85,6.614Zm15.793,6.7a.819.819,0,1,1,0-1.639H38.964a.819.819,0,1,1,0,1.639Zm0-4.063a.819.819,0,1,1,0-1.639H47.169a.819.819,0,1,1,0,1.639Zm0-4.063a.819.819,0,1,1,0-1.639H47.169a.819.819,0,1,1,0,1.639Z" fill="url(#linear-gradient)"/>
      </g>
    </g>
  </g>
</svg>
