<svg xmlns="http://www.w3.org/2000/svg" width="154.412" height="31.792" viewBox="0 0 154.412 31.792">
  <path id="Glossier_logo" data-name="Glossier logo" d="M200.247,34.493a3.172,3.172,0,1,0,.015,0ZM66.984,9c6.313.061,9.795,3.785,10.824,9.038q.05.257.091.515a.318.318,0,0,1-.242.3l-4.844,1.272h-.076a.318.318,0,0,1-.3-.182,14.472,14.472,0,0,0-.757-1.907,6.041,6.041,0,0,0-5.9-3.724,9.84,9.84,0,0,0-7.736,3.724A14.154,14.154,0,0,0,55.01,27.03c0,5.268,2.71,8.372,7.024,8.372a8.509,8.509,0,0,0,8.129-5.98H64.774a.318.318,0,0,1-.3-.378l.8-4.057.015-.091a.333.333,0,0,1,.3-.167H76.31a.318.318,0,0,1,.3.394L73.676,40.109l-.03.091a.318.318,0,0,1-.257.151H69.134a.318.318,0,0,1-.3-.3v-2.74A8.886,8.886,0,0,1,63.9,40.367a13.625,13.625,0,0,1-6.116,0C52.86,39.156,49,34.781,49,27.878a21.018,21.018,0,0,1,2.316-9.84c2.846-5.4,8.175-8.992,15.4-9.038Zm35.106,8.674a11.751,11.751,0,0,1,2.907.363,8.992,8.992,0,0,1,6.873,9.083c0,4.208-1.151,7.478-3.815,10.052a11.793,11.793,0,0,1-5.662,3.179,14.9,14.9,0,0,1-3.512.363,11.766,11.766,0,0,1-2.907-.348A8.992,8.992,0,0,1,89.1,31.284c0-4.208,1.166-7.493,3.83-10.052a11.778,11.778,0,0,1,5.662-3.194A15.605,15.605,0,0,1,102.09,17.674Zm21.345,0a9.1,9.1,0,0,1,2.468.363,7.115,7.115,0,0,1,4.39,3.194l.045.151a.323.323,0,0,1-.121.257l-.03.015-3.467,2.483a.3.3,0,0,1-.424-.076,3.981,3.981,0,0,0-3.255-1.68,1.97,1.97,0,0,0-2.18,1.983c0,1.559,2.362,2.225,3.86,2.922,2.316,1.06,4.632,2.574,4.632,5.677,0,4.208-2.271,6.57-5.662,7.4a13.035,13.035,0,0,1-3.149.348,9.707,9.707,0,0,1-2.664-.348,8.22,8.22,0,0,1-5.722-5.965v-.045a.344.344,0,0,1,.182-.3l4.133-1.7a.318.318,0,0,1,.424.2,4.35,4.35,0,0,0,4.269,3.467c1.514,0,2.846-.712,2.846-2.3,0-1.287-1.287-2.089-3.815-3.285-2.619-1.241-4.587-2.967-4.587-5.934a6.313,6.313,0,0,1,4.981-6.464A10.535,10.535,0,0,1,123.435,17.674Zm18.317,0a8.9,8.9,0,0,1,2.452.363,7.115,7.115,0,0,1,4.405,3.209.318.318,0,0,1-.076.378l-3.5,2.513a.318.318,0,0,1-.424-.091,3.981,3.981,0,0,0-3.255-1.665,1.97,1.97,0,0,0-2.18,1.983c0,1.559,2.346,2.225,3.86,2.922,2.316,1.06,4.632,2.574,4.632,5.677,0,4.208-2.271,6.57-5.662,7.4a13.034,13.034,0,0,1-3.149.348,9.707,9.707,0,0,1-2.664-.348,8.22,8.22,0,0,1-5.737-6.01.358.358,0,0,1,.2-.3l4.133-1.7a.318.318,0,0,1,.424.167,4.339,4.339,0,0,0,4.269,3.5c1.514,0,2.846-.712,2.846-2.3,0-1.287-1.287-2.089-3.815-3.285-2.634-1.241-4.587-2.967-4.587-5.934a6.313,6.313,0,0,1,4.981-6.464,10.456,10.456,0,0,1,2.846-.363Zm31.291,0a11.051,11.051,0,0,1,2.831.363c4.027,1.06,6.146,4.466,6.146,8.6a15.636,15.636,0,0,1-.56,4.118.318.318,0,0,1-.3.227h-15.85v.7a4.24,4.24,0,0,0,4.542,4.345c2.543,0,4.375-1.3,5.98-3.6a.323.323,0,0,1,.257-.121l.121.03,3.875,1.983a.318.318,0,0,1,.106.454c-2.119,3.028-4.39,4.875-7.509,5.6a14.684,14.684,0,0,1-3.33.348,11.541,11.541,0,0,1-2.846-.348c-4.012-1.06-6.752-4.42-6.752-9.537a12.943,12.943,0,0,1,13.291-13.155ZM89.344,9a.32.32,0,0,1,.318.318v.045L83.667,40.124a.333.333,0,0,1-.3.242h-4.92a.318.318,0,0,1-.3-.318.3.3,0,0,1,0-.076l5.98-30.716.03-.076A.3.3,0,0,1,84.439,9Zm69.228,9.038a.333.333,0,0,1,.333.318v.03l-4.239,21.739a.318.318,0,0,1-.3.242h-4.92a.318.318,0,0,1-.318-.394l4.239-21.708a.3.3,0,0,1,.3-.227Zm40.707-.363a6.282,6.282,0,0,1,2.6.469l.061.03a.318.318,0,0,1,.106.394l-1.62,4.3a.3.3,0,0,1-.3.2.318.318,0,0,1-.151-.03,4.148,4.148,0,0,0-1.938-.439c-2.77,0-6.585,2.8-7.917,9.84l-1.514,7.69a.318.318,0,0,1-.3.242h-4.92a.318.318,0,0,1-.3-.378l4.239-21.693a.3.3,0,0,1,.3-.257h4.9a.318.318,0,0,1,.3.394l-.575,2.922a9.492,9.492,0,0,1,4.632-3.33,8.16,8.16,0,0,1,2.392-.348Zm-97.673,4.693a5.9,5.9,0,0,0-4.935,2.407,8.871,8.871,0,0,0-1.665,5.662c0,3.467,1.741,5.586,4.375,5.586a5.9,5.9,0,0,0,4.935-2.392,8.871,8.871,0,0,0,1.635-5.677c0-3.452-1.726-5.571-4.345-5.571Zm70.726,0a6.585,6.585,0,0,0-5.965,4.269H176.6c-.182-2.8-1.468-4.254-4.269-4.254ZM157.118,9.348a3.141,3.141,0,1,1-3.164,3.149A3.085,3.085,0,0,1,157.118,9.348Z" transform="translate(-49 -9)" fill="#ababab" fill-rule="evenodd"/>
</svg>
