<svg xmlns="http://www.w3.org/2000/svg" width="128.545" height="42.314" viewBox="0 0 128.545 42.314">
  <g id="Google_logo" data-name="Google logo" transform="translate(-49 -4)">
    <path id="Path_105" data-name="Path 105" d="M97,23.846a10.607,10.607,0,1,1-21.214,0,10.6,10.6,0,0,1,21.2,0Zm-4.657,0a5.978,5.978,0,1,0-11.926,0,5.978,5.978,0,1,0,11.926,0Z" transform="translate(7.018 2.428)" fill="#ababab"/>
    <path id="Path_106" data-name="Path 106" d="M115.134,23.846a10.607,10.607,0,1,1-21.214,0,10.6,10.6,0,0,1,21.2,0Zm-4.644,0a5.984,5.984,0,1,0-11.938,0,5.984,5.984,0,1,0,11.938,0Z" transform="translate(11.768 2.428)" fill="#ababab"/>
    <path id="Path_107" data-name="Path 107" d="M132.307,13.9V32.894c0,7.8-4.606,10.992-10.045,10.992a10.071,10.071,0,0,1-9.376-6.234l4.038-1.678a5.843,5.843,0,0,0,5.338,3.748c3.483,0,5.641-2.145,5.641-6.184V32.01h-.164a7.193,7.193,0,0,1-5.565,2.4,10.578,10.578,0,0,1,0-21.138,7.3,7.3,0,0,1,5.565,2.36h.164V13.914h4.417Zm-4.076,9.97c0-3.71-2.486-6.436-5.641-6.436a6.117,6.117,0,0,0-5.893,6.436,6.068,6.068,0,0,0,5.893,6.373c3.155,0,5.641-2.675,5.641-6.36Z" transform="translate(16.515 2.429)" fill="#ababab"/>
    <path id="Path_108" data-name="Path 108" d="M134.8,4.96V35.929h-4.53V4.96Z" transform="translate(21.291 0.251)" fill="#ababab"/>
    <path id="Path_109" data-name="Path 109" d="M151.109,27.318l3.609,2.4a10.525,10.525,0,0,1-8.821,4.695,10.348,10.348,0,0,1-10.487-10.575c0-6.285,4.518-10.575,9.97-10.575,5.49,0,8.178,4.366,9.048,6.726l.48,1.211-14.134,5.843a5.376,5.376,0,0,0,5.124,3.205,6.026,6.026,0,0,0,5.212-2.928ZM140,23.52l9.465-3.925a4.1,4.1,0,0,0-3.925-2.246,5.805,5.805,0,0,0-5.527,6.171Z" transform="translate(22.637 2.426)" fill="#ababab"/>
    <path id="Path_110" data-name="Path 110" d="M65.658,23.523V19.017H80.777a15.772,15.772,0,0,1,.215,2.713c0,3.357-.921,7.521-3.887,10.487a14.989,14.989,0,0,1-11.446,4.606A16.647,16.647,0,0,1,49,20.418,16.641,16.641,0,0,1,65.658,4,15.641,15.641,0,0,1,76.915,8.53l-3.168,3.155A11.433,11.433,0,0,0,65.658,8.48,11.774,11.774,0,0,0,53.871,20.418,11.786,11.786,0,0,0,65.658,32.357a10.979,10.979,0,0,0,8.291-3.281,9.378,9.378,0,0,0,2.423-5.553H65.645Z" transform="translate(0)" fill="#ababab"/>
  </g>
</svg>
