<svg xmlns="http://www.w3.org/2000/svg" xmlns:xlink="http://www.w3.org/1999/xlink" width="285.633" height="85.364" viewBox="0 0 285.633 85.364">
  <defs>
    <linearGradient id="linear-gradient" x1="-0.229" y1="0.5" x2="1.335" y2="0.5" gradientUnits="objectBoundingBox">
      <stop offset="0" stop-color="#8a00c2"/>
      <stop offset="0.337" stop-color="#b700b6"/>
      <stop offset="0.7" stop-color="#e10090"/>
      <stop offset="1" stop-color="#e6008d"/>
    </linearGradient>
    <clipPath id="clip-path">
      <path id="Path_16709" data-name="Path 16709" d="M282.3,29.215h.61c.335,0,.526.156.526.454a.466.466,0,0,1-.526.478h-.61Zm-.323-.562a.27.27,0,0,0-.287.287v2.57c0,.215.084.3.2.3a.557.557,0,0,0,.406-.3v-.956l.98,1.147a.335.335,0,0,0,.227.108.292.292,0,0,0,.3-.275.285.285,0,0,0-.072-.179L283,30.542h.048a.914.914,0,0,0,.992-.933.956.956,0,0,0-1.088-.956Zm-1.423,1.626a2.144,2.144,0,0,1,2.211-2.224,2.2,2.2,0,0,1,2.247,2.224,2.141,2.141,0,0,1-2.247,2.2,2.167,2.167,0,0,1-2.211-2.2m-.622,0a2.852,2.852,0,1,0,2.833-2.8,2.754,2.754,0,0,0-2.833,2.8m-169.242-1.7v13.2a1.814,1.814,0,1,0,3.627,0V33.6c0-2.291,1.464-3.531,3.786-3.563,1.622-.032,2.036-1.082,2.036-1.718,0-.763-.573-1.591-2-1.464a4.489,4.489,0,0,0-3.818,2.45v-.732a1.813,1.813,0,1,0-3.627,0m80.313,0v13.2a1.8,1.8,0,0,0,1.845,1.845,1.777,1.777,0,0,0,1.813-1.845v-13.2a1.829,1.829,0,0,0-3.659,0m61.666,0v13.2a1.814,1.814,0,1,0,3.627,0V33.6c0-2.291,1.463-3.531,3.786-3.563,1.622-.032,2.036-1.082,2.036-1.718,0-.763-.573-1.591-2-1.464a4.488,4.488,0,0,0-3.817,2.45v-.732a1.814,1.814,0,1,0-3.627,0m11.2,2.959c0,5.854,9.768,4.1,9.768,7.381,0,1.24-1.21,1.972-3.054,1.972a4.134,4.134,0,0,1-3.754-2.036,1.7,1.7,0,0,0-1.432-.891,1.781,1.781,0,0,0-1.718,1.75,2.035,2.035,0,0,0,.414,1.177c1.273,1.782,3.4,2.864,6.458,2.864,3.945,0,6.745-1.781,6.745-5.059,0-6.14-9.894-4.231-9.894-7.476,0-1.146,1.24-1.846,2.736-1.846A4.612,4.612,0,0,1,273.6,31.06a2.115,2.115,0,0,0,1.559.826,1.463,1.463,0,0,0,1.4-1.527,2.008,2.008,0,0,0-.478-1.3,7.733,7.733,0,0,0-5.917-2.45c-3.468,0-6.3,1.813-6.3,4.931M92.583,35.163a5.313,5.313,0,1,1,5.345,5.313,5.121,5.121,0,0,1-5.345-5.313m-3.69-.032c0,4.771,3.117,8.621,8.113,8.621,2.99,0,5.313-1.432,6.236-3.69v1.75a1.777,1.777,0,0,0,1.845,1.813,1.752,1.752,0,0,0,1.814-1.813v-13.2a1.829,1.829,0,0,0-3.659,0v1.3A6.948,6.948,0,0,0,97.2,26.573c-5.059,0-8.3,3.659-8.3,8.559m57.146-5.6a4.589,4.589,0,0,1,4.836,4.231h-9.64a4.6,4.6,0,0,1,4.8-4.231m-8.431,5.663c0,5.154,3.659,8.558,8.686,8.558a8.389,8.389,0,0,0,6.617-3.15,1.636,1.636,0,0,0,.414-1.05,1.662,1.662,0,0,0-1.559-1.622,1.489,1.489,0,0,0-1.209.668,5.014,5.014,0,0,1-4.231,2.132,4.847,4.847,0,0,1-5.122-4.518h11.421a1.589,1.589,0,0,0,1.782-1.941c-.509-4.709-3.723-7.7-8.368-7.7a8.276,8.276,0,0,0-8.431,8.622m64.5-5.631v-.986a1.845,1.845,0,0,0-3.69,0v13.2a1.845,1.845,0,0,0,3.69,0V34.495c.032-3.118,1.75-4.773,4.327-4.773,2.068,0,4.072,1.082,4.072,4.582v7.413a1.846,1.846,0,1,0,3.69,0V33.763c0-5.059-3.181-7.19-6.681-7.19a5.813,5.813,0,0,0-5.409,2.99m39.266-.032a4.589,4.589,0,0,1,4.836,4.231h-9.64a4.6,4.6,0,0,1,4.8-4.231m-8.431,5.663c0,5.154,3.659,8.558,8.686,8.558a8.389,8.389,0,0,0,6.617-3.15,1.636,1.636,0,0,0,.414-1.05,1.662,1.662,0,0,0-1.559-1.622,1.491,1.491,0,0,0-1.209.668,5.015,5.015,0,0,1-4.231,2.132,4.847,4.847,0,0,1-5.122-4.518h11.421a1.588,1.588,0,0,0,1.781-1.941c-.508-4.709-3.722-7.7-8.367-7.7a8.276,8.276,0,0,0-8.431,8.622M154.568,20.846a1.686,1.686,0,0,0,0,3.373h4.613v17.53a1.862,1.862,0,1,0,3.723,0V24.219h4.613a1.686,1.686,0,0,0,0-3.373Zm36.116,1.877a2.159,2.159,0,0,0,2.163,2.132,2.132,2.132,0,0,0,2.131-2.132,2.147,2.147,0,1,0-4.295,0m-68.285-1.5V41.781a1.861,1.861,0,0,0,1.813,1.845,1.838,1.838,0,0,0,1.814-1.845c0-2.672-.064-4.645-.127-6.14l7.509,7.381a1.741,1.741,0,0,0,1.24.541,1.842,1.842,0,0,0,1.846-1.655,1.293,1.293,0,0,0-.445-.986l-6.522-6.3,6.3-5.281a1.631,1.631,0,0,0,.7-1.241,1.488,1.488,0,0,0-1.623-1.336,2.569,2.569,0,0,0-1.622.636l-7.413,6.2c.159-2.9.159-6.458.159-12.376a1.84,1.84,0,0,0-1.814-1.846,1.861,1.861,0,0,0-1.813,1.846m49.321,0V41.781a1.814,1.814,0,1,0,3.627,0V34.495c.032-2.99,1.686-4.773,4.359-4.773,2.036,0,4.072,1.051,4.072,4.582v7.413a1.846,1.846,0,1,0,3.69,0V33.763c0-5.027-3.181-7.19-6.681-7.19a5.765,5.765,0,0,0-5.44,3.054v-8.4a1.814,1.814,0,1,0-3.627,0m46.011,0V41.781a1.861,1.861,0,0,0,1.813,1.845,1.838,1.838,0,0,0,1.814-1.845c0-2.672-.064-4.645-.127-6.14l7.508,7.381a1.742,1.742,0,0,0,1.24.541,1.842,1.842,0,0,0,1.846-1.655,1.292,1.292,0,0,0-.446-.986l-6.522-6.3,6.3-5.281a1.63,1.63,0,0,0,.7-1.241,1.488,1.488,0,0,0-1.622-1.336,2.569,2.569,0,0,0-1.623.636L221.2,33.6c.159-2.9.159-6.458.159-12.376a1.84,1.84,0,0,0-1.814-1.846,1.862,1.862,0,0,0-1.813,1.846M80,16.1,70.277,30.34,60.6,16.1a2.887,2.887,0,0,0-2.366-1.226,3.012,3.012,0,0,0-3,3V42.892a2.472,2.472,0,1,0,4.945,0c0-13.185-.042-17.622-.3-19.9l8.706,12.8a2.123,2.123,0,0,0,1.69,1.057,2.067,2.067,0,0,0,1.691-1.057l8.706-12.762c-.253,2.409-.253,7.353-.253,19.863a2.49,2.49,0,0,0,2.451,2.494,2.526,2.526,0,0,0,2.494-2.494V17.873a3.04,3.04,0,0,0-3-3A2.887,2.887,0,0,0,80,16.1M6.084,77.929a3.073,3.073,0,0,1,.2-3.287,5.78,5.78,0,0,1,.641-.716l.384-.385,4.165,2.734a1.244,1.244,0,0,1,.2,1.919l-.472.472a3.252,3.252,0,0,1-2.4.988,3.126,3.126,0,0,1-2.714-1.726m8.909-4.452L11.673,71.3a1.244,1.244,0,0,1-.2-1.92Q18.262,62.594,25.012,55.8c.483-.46.739-.558,1.237-.023,1.115,1.229,2.314,2.367,3.505,3.528.347.332.332.513,0,.829q-6.607,6.585-13.2,13.178a1.244,1.244,0,0,1-1.562.159M51.531.49A28.388,28.388,0,0,0,34.548,45.922c.271.369.347.565-.022.92-1.432,1.372-2.827,2.789-4.222,4.221-.294.294-.475.332-.769,0-.535-.588-1.123-1.138-1.689-1.711a2.871,2.871,0,0,0-4.394,0c-1.538,1.545-3.1,3.091-4.644,4.651-5.458,5.45-10.93,10.855-16.327,16.38a8.736,8.736,0,0,0,.128,12.325,8.752,8.752,0,0,0,12.4.158c7.1-7,14.119-14.066,21.152-21.114a2.775,2.775,0,0,0,0-4.063c-.565-.58-1.138-1.191-1.764-1.741-.4-.369-.4-.565-.015-.972,1.357-1.289,2.7-2.608,3.965-3.965.475-.5.754-.46,1.267-.06a27.769,27.769,0,0,0,22.094,5.51,28.177,28.177,0,0,0,13-5.772c.262-.184.515-.36.785-.552a3,3,0,0,0,.783-4.062,2.87,2.87,0,0,0-4.013-.7l-3.373,2.417a22.772,22.772,0,1,1,1.837-37.476c.671.575,1.372,1.187,2.1,1.816.1.1.2.191.3.29a1.1,1.1,0,0,0,.151.1c.163.141.316.275.483.418a3,3,0,0,0,4.13-.222A2.87,2.87,0,0,0,77.6,8.651L76.3,7.546c-.56-.523-1.147-1.012-1.745-1.485l-.213-.181-.017,0A28.277,28.277,0,0,0,56.943,0a30.4,30.4,0,0,0-5.412.49" transform="translate(0 0)" fill="url(#linear-gradient)"/>
    </clipPath>
  </defs>
  <g id="Group_200" data-name="Group 200" transform="translate(0)">
    <g id="Group_139" data-name="Group 139" transform="translate(0)" clip-path="url(#clip-path)">
      <rect id="Rectangle_153" data-name="Rectangle 153" width="286.544" height="86.303" transform="translate(-0.911)" fill="url(#linear-gradient)"/>
    </g>
  </g>
</svg>
