<svg xmlns="http://www.w3.org/2000/svg" width="77" height="64" viewBox="0 0 77 64">
  <g id="Group_41579" data-name="Group 41579" transform="translate(-424 -1996)">
    <rect id="Rectangle_13806" data-name="Rectangle 13806" width="57" height="45" rx="8" transform="translate(424 2015)" fill="#50dbff"/>
    <path id="Path_36609" data-name="Path 36609" d="M48,20.594v6.938a1.2,1.2,0,0,1-.25.719.951.951,0,0,1-.625.406l-5.781.875a20.021,20.021,0,0,1-1.219,2.844q1.094,1.563,3.344,4.313a1.208,1.208,0,0,1,.313.781,1.043,1.043,0,0,1-.281.719,31.754,31.754,0,0,1-3.094,3.375q-2.25,2.219-2.937,2.219a1.526,1.526,0,0,1-.812-.281l-4.312-3.375A17.83,17.83,0,0,1,29.5,41.313a51.112,51.112,0,0,1-.906,5.813A1.052,1.052,0,0,1,27.469,48H20.531a1.181,1.181,0,0,1-.766-.266.926.926,0,0,1-.359-.672l-.875-5.75a19.314,19.314,0,0,1-2.812-1.156L11.313,43.5a1.124,1.124,0,0,1-.781.281,1.077,1.077,0,0,1-.781-.344,41.246,41.246,0,0,1-5.156-5.25,1.222,1.222,0,0,1-.219-.719,1.2,1.2,0,0,1,.25-.719q.469-.656,1.594-2.078t1.688-2.2a15.462,15.462,0,0,1-1.281-3.094L.906,28.531a.985.985,0,0,1-.656-.391A1.182,1.182,0,0,1,0,27.406V20.469a1.2,1.2,0,0,1,.25-.719.941.941,0,0,1,.594-.406l5.813-.875a15.437,15.437,0,0,1,1.219-2.875q-1.25-1.781-3.344-4.312a1.174,1.174,0,0,1-.312-.75A1.317,1.317,0,0,1,4.5,9.813,31.03,31.03,0,0,1,7.578,6.453q2.266-2.234,2.953-2.234a1.33,1.33,0,0,1,.813.313l4.313,3.344A17.83,17.83,0,0,1,18.5,6.688,51.111,51.111,0,0,1,19.406.875,1.052,1.052,0,0,1,20.531,0h6.938a1.181,1.181,0,0,1,.766.266.926.926,0,0,1,.359.672l.875,5.75a19.314,19.314,0,0,1,2.813,1.156L36.719,4.5a1.014,1.014,0,0,1,.75-.281,1.208,1.208,0,0,1,.781.313,42.747,42.747,0,0,1,5.156,5.313,1.009,1.009,0,0,1,.219.688,1.2,1.2,0,0,1-.25.719q-.469.656-1.594,2.078t-1.687,2.2a18.828,18.828,0,0,1,1.281,3.063l5.719.875a.985.985,0,0,1,.656.391A1.182,1.182,0,0,1,48,20.594Z" transform="translate(453 1996)" fill="#69f"/>
    <path id="Union_7" data-name="Union 7" d="M-1484.467,13050a1.173,1.173,0,0,1-.766-.266.939.939,0,0,1-.36-.675l-.874-5.751a18.952,18.952,0,0,1-2.813-1.152l-4.405,3.344a1.13,1.13,0,0,1-.783.278,1.084,1.084,0,0,1-.78-.341,41.174,41.174,0,0,1-5.155-5.25,1.2,1.2,0,0,1-.223-.721,1.179,1.179,0,0,1,.252-.717c.311-.439.842-1.13,1.595-2.08s1.31-1.68,1.683-2.2a15.546,15.546,0,0,1-1.281-3.092l-5.718-.845a.97.97,0,0,1-.655-.39,1.177,1.177,0,0,1-.249-.733v-6.94a1.2,1.2,0,0,1,.249-.717.925.925,0,0,1,.593-.406l2.286-.344H-1485a8,8,0,0,1,8,8v3a8.06,8.06,0,0,1-.061.987l.061-.034v16.948a1.351,1.351,0,0,1-.534.1Z" transform="translate(1958.001 -11006)" fill="#0021f5"/>
  </g>
</svg>
