<svg xmlns="http://www.w3.org/2000/svg" width="15" height="15" viewBox="0 0 15 15">
  <g id="Group_34" data-name="Group 34" transform="translate(508 -1013)">
    <path id="Path_16646" data-name="Path 16646" d="M2.511,31.87a1.017,1.017,0,0,0,1.016-1.017V17.887a1.016,1.016,0,0,0-1.016-1.016H-10.458a1.017,1.017,0,0,0-1.016,1.017A1.017,1.017,0,0,0-10.458,18.9H1.5V30.853A1.017,1.017,0,0,0,2.511,31.87Z" transform="translate(-496.526 996.13)" fill="#929393" fill-rule="evenodd"/>
    <path id="Path_16647" data-name="Path 16647" d="M5.84,22.651a.729.729,0,0,0,1.044,0l13.277-13.5a.76.76,0,0,0,0-1.062.73.73,0,0,0-1.044,0L5.84,21.589a.759.759,0,0,0,0,1.062Z" transform="translate(-513.624 1005.129)" fill="#929393" fill-rule="evenodd"/>
  </g>
</svg>
