<svg xmlns="http://www.w3.org/2000/svg" width="287" height="48.512" viewBox="0 0 287 48.512">
  <g id="hk-new-logo-white" transform="translate(-22.952 -16.551)">
    <g id="Group_40" data-name="Group 40" transform="translate(78.639 21.561)">
      <path id="Path_16648" data-name="Path 16648" d="M277.037,70.408h6.6a.531.531,0,0,0,.526-.526V38.026a.531.531,0,0,0-.526-.526h-6.6a.531.531,0,0,0-.526.526V50.438H263.453V38.026a.531.531,0,0,0-.526-.526h-6.6a.531.531,0,0,0-.526.526v31.88a.531.531,0,0,0,.526.526h6.6a.531.531,0,0,0,.526-.526V57.446h13.058v12.46A.543.543,0,0,0,277.037,70.408Z" transform="translate(-255.8 -37.5)" fill="#9b9b9b"/>
      <path id="Path_16649" data-name="Path 16649" d="M404.2,102.363h6.218a.531.531,0,0,0,.526-.526V80.457a.531.531,0,0,0-.526-.526H404.2a.531.531,0,0,0-.526.526v1.555l-.741-.622a7.527,7.527,0,0,0-1.889-1.148,9.5,9.5,0,0,0-3.827-.741,10.436,10.436,0,0,0-5.525,1.483,10.269,10.269,0,0,0-3.8,4.137,13.243,13.243,0,0,0-1.387,6.1,12.724,12.724,0,0,0,1.387,6.027,10.586,10.586,0,0,0,3.8,4.137,10.239,10.239,0,0,0,5.525,1.507,9.506,9.506,0,0,0,3.827-.765,7.875,7.875,0,0,0,1.889-1.172l.741-.622v1.578A.522.522,0,0,0,404.2,102.363Zm-2.081-7.486a4.811,4.811,0,0,1-3.635,1.483,4.947,4.947,0,0,1-2.559-.694,4.8,4.8,0,0,1-1.794-1.865,5.745,5.745,0,0,1-.622-2.679,5.425,5.425,0,0,1,.646-2.631,4.8,4.8,0,0,1,1.794-1.865,5.156,5.156,0,0,1,5.166,0,5.029,5.029,0,0,1,1.77,1.841,5.578,5.578,0,0,1,.622,2.655A5.309,5.309,0,0,1,402.117,94.878Z" transform="translate(-355.242 -69.455)" fill="#9b9b9b"/>
      <path id="Path_16650" data-name="Path 16650" d="M518.541,102.211H524.9a.531.531,0,0,0,.526-.526V87.575a8.227,8.227,0,0,0-1.076-4.209,8.388,8.388,0,0,0-2.966-2.966,8.212,8.212,0,0,0-4.281-1.1,10.157,10.157,0,0,0-4.735,1.076,7.968,7.968,0,0,0-1.339.861l-.717.574V80.3a.531.531,0,0,0-.526-.526h-6.362a.531.531,0,0,0-.526.526v21.4a.531.531,0,0,0,.526.526h6.362a.531.531,0,0,0,.526-.526v-12.2a4.314,4.314,0,0,1,.478-2.081,3.459,3.459,0,0,1,1.387-1.363,4.3,4.3,0,0,1,2.009-.478,3.693,3.693,0,0,1,3.85,3.922v12.2A.477.477,0,0,0,518.541,102.211Z" transform="translate(-443.804 -69.303)" fill="#9b9b9b"/>
      <g id="Group_38" data-name="Group 38" transform="translate(84.518 9.997)">
        <path id="Path_16651" data-name="Path 16651" d="M609.8,199.7Z" transform="translate(-609.656 -170.906)" fill="#9b9b9b"/>
        <path id="Path_16652" data-name="Path 16652" d="M609.607,108.692a9.492,9.492,0,0,0,3.97,2.846,16.6,16.6,0,0,0,6.672,1.268,14.51,14.51,0,0,0,6.625-1.459,11.035,11.035,0,0,0,6.242-10.308V80.3a.531.531,0,0,0-.526-.526h-6.218a.531.531,0,0,0-.526.526v1.028l-.717-.5a7.374,7.374,0,0,0-1.411-.789,9.7,9.7,0,0,0-3.85-.741,10.643,10.643,0,0,0-5.525,1.459,10.5,10.5,0,0,0-3.779,3.946,12.172,12.172,0,0,0,.024,11.24,10.165,10.165,0,0,0,3.779,3.946,10.508,10.508,0,0,0,5.524,1.435,9.921,9.921,0,0,0,3.827-.741,7.021,7.021,0,0,0,1.315-.717l.694-.478V101.3a4.748,4.748,0,0,1-1.626,3.85,6.36,6.36,0,0,1-4.233,1.315,7.906,7.906,0,0,1-3.683-.789,11.849,11.849,0,0,1-2.128-1.507.586.586,0,0,0-.646.048l-3.755,3.707-.048.048a.569.569,0,0,0,0,.717Zm14.947-14.565a4.811,4.811,0,0,1-3.635,1.483,4.948,4.948,0,0,1-2.559-.694,4.8,4.8,0,0,1-1.794-1.865,5.745,5.745,0,0,1-.622-2.679,5.425,5.425,0,0,1,.646-2.631,4.8,4.8,0,0,1,1.794-1.865,5.156,5.156,0,0,1,5.166,0,5.029,5.029,0,0,1,1.77,1.841,5.578,5.578,0,0,1,.622,2.655A5.167,5.167,0,0,1,624.554,94.128Z" transform="translate(-609.2 -79.3)" fill="#9b9b9b"/>
      </g>
      <g id="Group_39" data-name="Group 39" transform="translate(111.566 0.072)">
        <path id="Path_16653" data-name="Path 16653" d="M726.2,37.8a3.68,3.68,0,0,0-2.774,1.148,3.953,3.953,0,0,0-1.124,2.846,3.82,3.82,0,0,0,1.1,2.846,4.074,4.074,0,0,0,5.62,0,3.913,3.913,0,0,0,1.1-2.87,3.973,3.973,0,0,0-1.1-2.846A3.674,3.674,0,0,0,726.2,37.8Z" transform="translate(-722.3 -37.8)" fill="#9b9b9b"/>
        <path id="Path_16654" data-name="Path 16654" d="M730.036,81.4h-6.409a.531.531,0,0,0-.526.526v21.381a.531.531,0,0,0,.526.526h6.409a.531.531,0,0,0,.526-.526V81.9A.527.527,0,0,0,730.036,81.4Z" transform="translate(-722.909 -70.973)" fill="#9b9b9b"/>
      </g>
      <path id="Path_16655" data-name="Path 16655" d="M900.488,79.878h-6.362a.531.531,0,0,0-.526.526v21.381a.531.531,0,0,0,.526.526h6.362a.531.531,0,0,0,.526-.526V90.066a4.428,4.428,0,0,1,1.028-3.181,3.746,3.746,0,0,1,2.87-1.124,4.772,4.772,0,0,1,1.7.287c.263.1,1.268.478,1.483.6.1.048.191.048.239-.024l3.324-5.74a.151.151,0,0,0-.024-.215,4.942,4.942,0,0,0-1.507-.861A8.392,8.392,0,0,0,907.4,79.4a8.3,8.3,0,0,0-5.62,1.865l-.741.646V80.4A.569.569,0,0,0,900.488,79.878Z" transform="translate(-741.066 -69.379)" fill="#9b9b9b"/>
      <path id="Path_16656" data-name="Path 16656" d="M989.424,92.512a6.156,6.156,0,0,0,.12-.861c.048-.478.072-.957.072-1.411a11.416,11.416,0,0,0-1.483-5.811,10.823,10.823,0,0,0-4.113-3.994A12.433,12.433,0,0,0,977.969,79a13.021,13.021,0,0,0-6.29,1.531,11.687,11.687,0,0,0-4.377,4.185,11.519,11.519,0,0,0-1.6,6.027,11.253,11.253,0,0,0,1.65,6.1A11.572,11.572,0,0,0,971.894,101a14.419,14.419,0,0,0,6.72,1.507,14.583,14.583,0,0,0,5.381-.957,10.527,10.527,0,0,0,3.4-2.2.448.448,0,0,0,0-.622l-3.157-3.157a.305.305,0,0,0-.263-.1.539.539,0,0,0-.263.12,5.385,5.385,0,0,1-1.913,1.244,7.979,7.979,0,0,1-3.2.6,6.573,6.573,0,0,1-3.276-.765,5.056,5.056,0,0,1-2.081-2.32,7.29,7.29,0,0,1-.311-.765l-.191-.6,16.191-.072A.489.489,0,0,0,989.424,92.512Zm-16.717-3.946.191-.6a6.757,6.757,0,0,1,.263-.741,5.519,5.519,0,0,1,1.937-2.344,5.32,5.32,0,0,1,2.966-.837,4.851,4.851,0,0,1,2.774.741,4.726,4.726,0,0,1,1.7,2.128,7.93,7.93,0,0,1,.311.981l.143.55Z" transform="translate(-795.923 -69.075)" fill="#9b9b9b"/>
      <path id="Path_16657" data-name="Path 16657" d="M1092.521,70.56h6.218a.531.531,0,0,0,.526-.526V38.226a.531.531,0,0,0-.526-.526h-6.362a.531.531,0,0,0-.526.526V49.61l-.693-.454a8.761,8.761,0,0,0-1.411-.741,10.221,10.221,0,0,0-3.922-.741,10.994,10.994,0,0,0-5.764,1.483,10.38,10.38,0,0,0-3.85,4.137,12.929,12.929,0,0,0-1.411,6.075,12.569,12.569,0,0,0,1.411,6,10.586,10.586,0,0,0,3.874,4.137,10.734,10.734,0,0,0,5.716,1.507,9.465,9.465,0,0,0,3.922-.837,9.119,9.119,0,0,0,1.554-.909l.718-.526V70.01A.522.522,0,0,0,1092.521,70.56Zm-1.339-8.514h0a4.688,4.688,0,0,1-1.77,1.842,5.151,5.151,0,0,1-2.607.67,4.947,4.947,0,0,1-2.559-.694A4.8,4.8,0,0,1,1082.453,62a5.746,5.746,0,0,1-.622-2.679,5.426,5.426,0,0,1,.646-2.631,4.8,4.8,0,0,1,1.794-1.865,5.156,5.156,0,0,1,5.166,0,5.03,5.03,0,0,1,1.77,1.841,5.579,5.579,0,0,1,.622,2.655A5.474,5.474,0,0,1,1091.182,62.046Z" transform="translate(-878.931 -37.652)" fill="#9b9b9b"/>
      <path id="Path_16658" data-name="Path 16658" d="M1198.035,81.4h-6.409a.531.531,0,0,0-.526.526v21.381a.531.531,0,0,0,.526.526h6.409a.531.531,0,0,0,.526-.526V81.9A.527.527,0,0,0,1198.035,81.4Z" transform="translate(-967.417 -70.901)" fill="#9b9b9b"/>
      <path id="Path_16659" data-name="Path 16659" d="M1197.044,38.948a4.013,4.013,0,0,0-5.62,0,3.953,3.953,0,0,0-1.124,2.846,3.82,3.82,0,0,0,1.1,2.846,4.074,4.074,0,0,0,5.62,0,3.913,3.913,0,0,0,1.1-2.87,3.8,3.8,0,0,0-1.076-2.822Z" transform="translate(-966.809 -37.728)" fill="#9b9b9b"/>
      <path id="Path_16660" data-name="Path 16660" d="M795.377,37.524c.072.024.335.12.1.478l-7.8,9.805-.383.478c-.67.837-2.128,2.655-3.85,4.831l-.072.048,12.508,16.55.239.311a.22.22,0,0,1-.024.287h0c-.12.12-.478.1-.55.1h-8.155a.47.47,0,0,1-.407-.215l-8.155-11.264-.1.143c-.957,1.22-1.865,2.368-2.655,3.372l-.024.024v7.414a.531.531,0,0,1-.526.526h-6.6a.531.531,0,0,1-.526-.526V38.026a.531.531,0,0,1,.526-.526h6.6a.531.531,0,0,1,.526.526V51.467L786.48,37.715a.533.533,0,0,1,.407-.215h8.251a.991.991,0,0,1,.239.024Z" transform="translate(-645.809 -37.5)" fill="#9b9b9b"/>
    </g>
    <g id="Group_45" data-name="Group 45" transform="translate(22.952 16.551)">
      <g id="Group_41" data-name="Group 41" transform="translate(32.232 14.032)">
        <path id="Path_16661" data-name="Path 16661" d="M161.234,75.432a4.812,4.812,0,0,0-2.918,2.463,4.878,4.878,0,0,0,2.033,6.649h.024a5.121,5.121,0,0,0,3.779.359,4.817,4.817,0,0,0,2.87-2.415,4.877,4.877,0,0,0,.407-3.779,4.676,4.676,0,0,0-2.392-2.87A4.925,4.925,0,0,0,161.234,75.432Z" transform="translate(-157.724 -75.222)" fill="#9b9b9b"/>
      </g>
      <g id="Group_42" data-name="Group 42" transform="translate(10.397 9.631)">
        <path id="Path_16662" data-name="Path 16662" d="M69.934,57.032A4.958,4.958,0,0,0,67.016,59.5a4.878,4.878,0,0,0,2.033,6.649h.024a5.121,5.121,0,0,0,3.779.359,4.817,4.817,0,0,0,2.87-2.415,4.877,4.877,0,0,0,.407-3.779,4.676,4.676,0,0,0-2.392-2.87A4.9,4.9,0,0,0,69.934,57.032Z" transform="translate(-66.424 -56.822)" fill="#9b9b9b"/>
      </g>
      <g id="Group_43" data-name="Group 43" transform="translate(0 22.921)">
        <path id="Path_16663" data-name="Path 16663" d="M49.653,132.292a27.835,27.835,0,0,1-6.433-.765c-11.695-2.822-18.511-12.58-20.161-15.21a.718.718,0,0,1,.263-1l5-2.822a.7.7,0,0,1,.957.239c1.411,2.152,6.888,9.758,15.689,11.838,6.242,1.483,13.034-.1,20.209-4.664a.7.7,0,0,1,.981.215l3.157,4.783a.73.73,0,0,1-.215,1C62.472,130.14,55.943,132.292,49.653,132.292Z" transform="translate(-22.952 -112.392)" fill="#9b9b9b"/>
      </g>
      <g id="Group_44" data-name="Group 44" transform="translate(20.328)">
        <path id="Path_16664" data-name="Path 16664" d="M114.157,47.557l-5.62-1.1a.727.727,0,0,1-.574-.837l5.6-28.483a.727.727,0,0,1,.837-.574l5.62,1.1a.727.727,0,0,1,.574.837l-5.6,28.483A.727.727,0,0,1,114.157,47.557Z" transform="translate(-107.951 -16.551)" fill="#9b9b9b"/>
      </g>
    </g>
  </g>
</svg>
