<svg xmlns="http://www.w3.org/2000/svg" xmlns:xlink="http://www.w3.org/1999/xlink" width="56" height="56" viewBox="0 0 56 56">
  <defs>
    <linearGradient id="linear-gradient" x1="0.5" x2="0.5" y2="1" gradientUnits="objectBoundingBox">
      <stop offset="0" stop-color="#fc4aab"/>
      <stop offset="1" stop-color="#b83fd1"/>
    </linearGradient>
  </defs>
  <g id="inspiration" transform="translate(0 0)">
    <path id="Path_16796" data-name="Path 16796" d="M3.836,52.77A2.757,2.757,0,0,1,6.59,50.016h9.18a2.757,2.757,0,0,1,2.754,2.754v7.344h1.836V52.77a4.6,4.6,0,0,0-4.59-4.59h-.5a5.508,5.508,0,1,0-8.189,0h-.5A4.6,4.6,0,0,0,2,52.77v7.344H3.836Zm3.672-8.262A3.672,3.672,0,1,1,11.18,48.18,3.676,3.676,0,0,1,7.508,44.508Z" transform="translate(-2 -4.115)" fill="url(#linear-gradient)"/>
    <path id="Path_16797" data-name="Path 16797" d="M6,54H7.836v7.344H6Z" transform="translate(-2.328 -5.345)" fill="url(#linear-gradient)"/>
    <path id="Path_16798" data-name="Path 16798" d="M16,54h1.836v7.344H16Z" transform="translate(-3.148 -5.345)" fill="url(#linear-gradient)"/>
    <path id="Path_16799" data-name="Path 16799" d="M30.59,61.18a.918.918,0,0,0,.918-.918V52.918A.918.918,0,0,0,30.59,52H26.918a.918.918,0,0,0-.918.918v7.344a.918.918,0,0,0,.918.918Zm-2.754-7.344h1.836v5.508H27.836Z" transform="translate(-3.967 -5.181)" fill="url(#linear-gradient)"/>
    <path id="Path_16800" data-name="Path 16800" d="M39.59,60.852a.918.918,0,0,0,.918-.918V48.918A.918.918,0,0,0,39.59,48H35.918a.918.918,0,0,0-.918.918V59.934a.918.918,0,0,0,.918.918ZM36.836,49.836h1.836v9.18H36.836Z" transform="translate(-4.705 -4.853)" fill="url(#linear-gradient)"/>
    <path id="Path_16801" data-name="Path 16801" d="M48.59,42H44.918a.918.918,0,0,0-.918.918V59.443a.918.918,0,0,0,.918.918H48.59a.918.918,0,0,0,.918-.918V42.918A.918.918,0,0,0,48.59,42Zm-.918,16.525H45.836V43.836h1.836Z" transform="translate(-5.443 -4.361)" fill="url(#linear-gradient)"/>
    <path id="Path_16802" data-name="Path 16802" d="M21.351,42.095l7.9-3.657,1.2,2.493a.919.919,0,0,0,.827.52h0a.916.916,0,0,0,.826-.521l2.54-5.3a.919.919,0,0,0-.622-1.292l-5.729-1.315a.918.918,0,0,0-1.032,1.294l1.19,2.468L20.58,40.429Zm11.143-6.224-1.219,2.544-1.53-3.175Z" transform="translate(-3.523 -3.623)" fill="url(#linear-gradient)"/>
    <path id="Path_16803" data-name="Path 16803" d="M39.605,23.823a2.741,2.741,0,0,1,.985,2.1v2.107a.918.918,0,0,0,.918.918h9.18a.918.918,0,0,0,.918-.918V25.926a2.694,2.694,0,0,1,.958-2.08,10.1,10.1,0,1,0-12.959-.023Zm-1.729-8.557a8.263,8.263,0,1,1,13.512,7.169,4.53,4.53,0,0,0-1.618,3.491v1.189H47.017V23.443a.919.919,0,0,0-.344-.717l-3.98-3.185a.7.7,0,0,1-.266-.553v-.346a.709.709,0,0,1,.708-.708h.257a.7.7,0,0,1,.589.316,2.544,2.544,0,0,0,4.234,0,.708.708,0,0,1,.59-.316h.257a.709.709,0,0,1,.709.708V19.1a.7.7,0,0,1-.207.5l-2.278,2.278,1.3,1.3L50.861,20.9a2.53,2.53,0,0,0,.745-1.8v-.454A2.547,2.547,0,0,0,49.063,16.1h-.257a2.538,2.538,0,0,0-2.117,1.133.709.709,0,0,1-1.179,0A2.541,2.541,0,0,0,43.392,16.1h-.257a2.547,2.547,0,0,0-2.545,2.544v.346a2.528,2.528,0,0,0,.956,1.987l3.634,2.908v3.231H42.426V25.926a4.572,4.572,0,0,0-1.641-3.509,8.285,8.285,0,0,1-2.909-7.151Z" transform="translate(-4.787 -1.41)" fill="url(#linear-gradient)"/>
    <path id="Path_16804" data-name="Path 16804" d="M42,32h9.18v1.836H42Z" transform="translate(-5.279 -3.541)" fill="url(#linear-gradient)"/>
    <path id="Path_16805" data-name="Path 16805" d="M49.426,35H43.918a.918.918,0,0,0-.918.918,3.672,3.672,0,1,0,7.344,0A.918.918,0,0,0,49.426,35Zm-2.754,2.754a1.836,1.836,0,0,1-1.589-.918h3.179a1.839,1.839,0,0,1-1.59.918Z" transform="translate(-5.361 -3.787)" fill="url(#linear-gradient)"/>
    <path id="Path_16806" data-name="Path 16806" d="M46,1h1.836V3.754H46Z" transform="translate(-5.607 -1)" fill="url(#linear-gradient)"/>
    <path id="Path_16807" data-name="Path 16807" d="M60,16h2.754v1.836H60Z" transform="translate(-6.754 -2.23)" fill="url(#linear-gradient)"/>
    <path id="Path_16808" data-name="Path 16808" d="M31,16h2.754v1.836H31Z" transform="translate(-4.377 -2.23)" fill="url(#linear-gradient)"/>
    <path id="Path_16809" data-name="Path 16809" d="M0,0H1.836V2.754H0Z" transform="translate(49.093 23.779) rotate(-45)" fill="url(#linear-gradient)"/>
    <path id="Path_16810" data-name="Path 16810" d="M0,0H1.836V2.754H0Z" transform="translate(30.272 4.954) rotate(-45)" fill="url(#linear-gradient)"/>
    <path id="Path_16811" data-name="Path 16811" d="M0,0H2.754V1.836H0Z" transform="translate(49.095 5.605) rotate(-45)" fill="url(#linear-gradient)"/>
    <path id="Path_16812" data-name="Path 16812" d="M0,0H2.754V1.836H0Z" transform="translate(30.27 24.426) rotate(-45)" fill="url(#linear-gradient)"/>
  </g>
</svg>
