<svg id="instagram" xmlns="http://www.w3.org/2000/svg" width="24" height="24" viewBox="0 0 24 24">
  <g id="Group_157" data-name="Group 157" transform="translate(0 0)">
    <path id="Path_16731" data-name="Path 16731" d="M12,0C8.743,0,8.334.015,7.055.072A8.842,8.842,0,0,0,4.14.63,5.876,5.876,0,0,0,2.015,2.014,5.891,5.891,0,0,0,.63,4.14,8.79,8.79,0,0,0,.072,7.05C.015,8.332,0,8.741,0,12s.015,3.666.072,4.945A8.84,8.84,0,0,0,.63,19.86a6.143,6.143,0,0,0,3.508,3.51,8.81,8.81,0,0,0,2.913.558C8.332,23.985,8.741,24,12,24s3.666-.015,4.947-.072a8.858,8.858,0,0,0,2.914-.558,6.143,6.143,0,0,0,3.509-3.51,8.879,8.879,0,0,0,.558-2.913C23.985,15.667,24,15.26,24,12s-.015-3.667-.072-4.948A8.869,8.869,0,0,0,23.37,4.14a5.889,5.889,0,0,0-1.384-2.126A5.866,5.866,0,0,0,19.86.63,8.828,8.828,0,0,0,16.945.072C15.664.015,15.258,0,12,0h0ZM10.924,2.163H12c3.2,0,3.583.01,4.848.069a6.65,6.65,0,0,1,2.229.412,3.723,3.723,0,0,1,1.38.9,3.708,3.708,0,0,1,.9,1.38,6.591,6.591,0,0,1,.412,2.227c.059,1.264.071,1.644.071,4.846s-.012,3.583-.071,4.848a6.639,6.639,0,0,1-.412,2.227,3.977,3.977,0,0,1-2.279,2.275,6.6,6.6,0,0,1-2.227.414c-1.264.057-1.644.07-4.848.07s-3.585-.013-4.85-.07a6.628,6.628,0,0,1-2.228-.414,3.717,3.717,0,0,1-1.38-.9,3.72,3.72,0,0,1-.9-1.38,6.63,6.63,0,0,1-.413-2.227c-.057-1.265-.069-1.644-.069-4.849s.012-3.582.069-4.846a6.639,6.639,0,0,1,.414-2.229,3.723,3.723,0,0,1,.9-1.38,3.708,3.708,0,0,1,1.38-.9,6.628,6.628,0,0,1,2.228-.414c1.107-.051,1.536-.066,3.773-.067v0Zm7.482,1.992a1.44,1.44,0,1,0,1.44,1.44,1.44,1.44,0,0,0-1.44-1.44ZM12,5.838A6.163,6.163,0,1,0,18.165,12,6.162,6.162,0,0,0,12,5.838ZM12,8a4,4,0,1,1-4,4A4,4,0,0,1,12,8Z" transform="translate(0 0)" fill="#1f0242"/>
  </g>
</svg>
