<svg id="instagram" xmlns="http://www.w3.org/2000/svg" width="34.334" height="34.334" viewBox="0 0 34.334 34.334">
  <g id="Group_157" data-name="Group 157" transform="translate(0 0)">
    <path id="Path_16731" data-name="Path 16731" d="M17.167,0c-4.659,0-5.245.021-7.075.1A12.649,12.649,0,0,0,5.923.9,8.4,8.4,0,0,0,2.882,2.882,8.427,8.427,0,0,0,.9,5.923a12.575,12.575,0,0,0-.8,4.163C.021,11.92,0,12.5,0,17.169s.021,5.245.1,7.075a12.647,12.647,0,0,0,.8,4.167A8.789,8.789,0,0,0,5.92,33.433a12.6,12.6,0,0,0,4.167.8c1.833.082,2.416.1,7.079.1s5.245-.021,7.077-.1a12.673,12.673,0,0,0,4.169-.8,8.789,8.789,0,0,0,5.019-5.021,12.7,12.7,0,0,0,.8-4.167c.082-1.83.1-2.414.1-7.077s-.021-5.247-.1-7.079a12.688,12.688,0,0,0-.8-4.165,8.425,8.425,0,0,0-1.981-3.041A8.392,8.392,0,0,0,28.411.9,12.629,12.629,0,0,0,24.242.1C22.409.021,21.828,0,17.163,0h.006ZM15.628,3.094h1.541c4.584,0,5.126.015,6.935.1a9.513,9.513,0,0,1,3.189.59,5.326,5.326,0,0,1,1.974,1.285,5.3,5.3,0,0,1,1.283,1.974,9.429,9.429,0,0,1,.59,3.187c.084,1.809.1,2.352.1,6.933s-.017,5.126-.1,6.935a9.5,9.5,0,0,1-.59,3.187,5.69,5.69,0,0,1-3.26,3.255,9.444,9.444,0,0,1-3.187.592c-1.809.082-2.352.1-6.935.1s-5.129-.019-6.938-.1a9.482,9.482,0,0,1-3.187-.592,5.317,5.317,0,0,1-1.974-1.283,5.322,5.322,0,0,1-1.288-1.974,9.484,9.484,0,0,1-.59-3.187c-.082-1.809-.1-2.352-.1-6.938s.017-5.124.1-6.933a9.5,9.5,0,0,1,.592-3.189A5.326,5.326,0,0,1,5.071,5.062,5.3,5.3,0,0,1,7.045,3.779a9.482,9.482,0,0,1,3.187-.592c1.584-.073,2.2-.094,5.4-.1v0Zm10.7,2.85A2.06,2.06,0,1,0,28.392,8a2.06,2.06,0,0,0-2.06-2.06ZM17.169,8.352a8.817,8.817,0,1,0,8.817,8.817,8.816,8.816,0,0,0-8.817-8.817Zm0,3.092a5.723,5.723,0,1,1-5.723,5.723A5.723,5.723,0,0,1,17.169,11.444Z" transform="translate(0 0)" fill="#1f0242"/>
  </g>
</svg>
