<svg xmlns="http://www.w3.org/2000/svg" width="24" height="22" viewBox="0 0 24 22">
  <g id="linkedin" transform="translate(0 -0.625)">
    <path id="Path_16732" data-name="Path 16732" d="M5.453,7.774V22.625H.3V7.774Zm.328-4.586a2.326,2.326,0,0,1-.789,1.828,3.019,3.019,0,0,1-2.117.734H2.844A2.889,2.889,0,0,1,.781,5.016,2.406,2.406,0,0,1,0,3.188,2.367,2.367,0,0,1,.8,1.352a3.015,3.015,0,0,1,2.1-.727,2.929,2.929,0,0,1,2.078.727A2.45,2.45,0,0,1,5.781,3.188ZM24,14.113v8.512H18.859V14.682a4.2,4.2,0,0,0-.633-2.465,2.258,2.258,0,0,0-1.977-.892,2.6,2.6,0,0,0-1.648.517,3.2,3.2,0,0,0-.992,1.281,3.486,3.486,0,0,0-.172,1.214v8.287H8.3q.031-5.98.031-9.7T8.313,8.493L8.3,7.774h5.141V9.932h-.031A5.718,5.718,0,0,1,14.93,8.313a4.128,4.128,0,0,1,1.359-.652,6.441,6.441,0,0,1,1.789-.232,5.668,5.668,0,0,1,4.3,1.7A6.947,6.947,0,0,1,24,14.113Z" fill="#1f0242"/>
  </g>
</svg>
