<svg id="linkedin" xmlns="http://www.w3.org/2000/svg" width="34.334" height="31.473" viewBox="0 0 34.334 31.473">
  <path id="Path_16732" data-name="Path 16732" d="M7.8,10.852V32.1H.425V10.852Zm.469-6.56A3.327,3.327,0,0,1,7.142,6.907,4.319,4.319,0,0,1,4.113,7.957H4.068A4.133,4.133,0,0,1,1.118,6.907,3.443,3.443,0,0,1,0,4.291,3.387,3.387,0,0,1,1.151,1.665,4.313,4.313,0,0,1,4.158.625a4.19,4.19,0,0,1,2.973,1.04A3.505,3.505,0,0,1,8.271,4.291ZM34.334,19.92V32.1H26.98V20.735a6.006,6.006,0,0,0-.905-3.527,3.23,3.23,0,0,0-2.828-1.276,3.722,3.722,0,0,0-2.358.74,4.579,4.579,0,0,0-1.419,1.833,4.987,4.987,0,0,0-.246,1.737V32.1H11.869q.045-8.554.045-13.871t-.022-6.346l-.022-1.029h7.354v3.087h-.045a9.362,9.362,0,0,1,.916-1.2,9.391,9.391,0,0,1,1.263-1.115,5.905,5.905,0,0,1,1.945-.933,9.214,9.214,0,0,1,2.559-.332,8.108,8.108,0,0,1,6.147,2.433Q34.334,15.225,34.334,19.92Z" transform="translate(0 -0.625)" fill="#1f0242"/>
</svg>
