<svg xmlns="http://www.w3.org/2000/svg" xmlns:xlink="http://www.w3.org/1999/xlink" width="374" height="472" viewBox="0 0 374 472">
  <defs>
    <clipPath id="clip-path">
      <path id="Rectangle_210" data-name="Rectangle 210" d="M0,0H374a0,0,0,0,1,0,0V472a0,0,0,0,1,0,0H25A25,25,0,0,1,0,447V0A0,0,0,0,1,0,0Z" transform="translate(0 0.236)" fill="#fff" stroke="#707070" stroke-width="1"/>
    </clipPath>
    <linearGradient id="linear-gradient" x1="0.5" x2="0.5" y2="1" gradientUnits="objectBoundingBox">
      <stop offset="0" stop-color="#fc4aab"/>
      <stop offset="1" stop-color="#b83fd1"/>
    </linearGradient>
  </defs>
  <g id="Mask_Group_11" data-name="Mask Group 11" transform="translate(0 -0.236)" clip-path="url(#clip-path)">
    <g id="champion" transform="translate(-94.543 0.758)" opacity="0.1">
      <path id="Path_16720" data-name="Path 16720" d="M158.682,347.43a244.829,244.829,0,0,1-56.619-62.44C82.742,278.038,8.114,241.953,4.01,98.179A23.586,23.586,0,0,1,27.448,73.941h46.9V38.47A35.323,35.323,0,0,1,109.521,3H367.464a35.323,35.323,0,0,1,35.174,35.47v35.47h46.9a23.528,23.528,0,0,1,23.449,24.2c-4.1,143.809-78.731,179.894-98.054,186.811a244.832,244.832,0,0,1-56.619,62.44,129.1,129.1,0,0,1-32.923,19.024v26.757a23.549,23.549,0,0,0,23.449,23.647h35.174c32.361.039,58.585,26.484,58.623,59.117a23.549,23.549,0,0,1-23.449,23.647H97.8A23.549,23.549,0,0,1,74.347,475.94c.039-32.633,26.263-59.078,58.623-59.117h35.174a23.549,23.549,0,0,0,23.449-23.647V366.419a129.1,129.1,0,0,1-32.911-18.988ZM27.448,97.47c2.521,88.215,33.04,130.437,56.771,150.04a176.812,176.812,0,0,1-9.872-58.183V97.588Zm422.089.118h-46.9v91.738a176.509,176.509,0,0,1-9.859,58.146C416.508,227.895,447,185.7,449.537,97.588Zm-70.348,91.738V38.47a11.774,11.774,0,0,0-11.725-11.823H109.521A11.774,11.774,0,0,0,97.8,38.47V189.326c0,52.721,25.384,99.672,75.437,139.517a104.25,104.25,0,0,0,130.519,0c50.053-39.845,75.437-86.8,75.437-139.517ZM168.144,440.469H132.97A35.323,35.323,0,0,0,97.8,475.94H379.188a35.323,35.323,0,0,0-35.174-35.47H308.84a47.1,47.1,0,0,1-46.9-47.294V373.241a122.247,122.247,0,0,1-46.9,0v19.934A47.1,47.1,0,0,1,168.144,440.469Z" transform="translate(-3.999 -3)" fill="url(#linear-gradient)"/>
      <path id="Path_16721" data-name="Path 16721" d="M59.509,167.916a11.643,11.643,0,0,1-10.824-1.574,11.858,11.858,0,0,1-4.828-9.9l1.173-42.316-25.6-33.543a11.9,11.9,0,0,1-1.862-10.861,11.772,11.772,0,0,1,7.83-7.69L65.664,50.06,89.395,15.145a12.109,12.109,0,0,1,19.346,0L132.471,50.06l40.263,11.977a11.771,11.771,0,0,1,7.83,7.69A11.9,11.9,0,0,1,178.7,80.588L153.1,114.131l1.173,42.316a11.858,11.858,0,0,1-4.828,9.9,11.644,11.644,0,0,1-10.824,1.574L99.056,153.728Zm70.829-28.069-.8-29.263a11.773,11.773,0,0,1,2.427-7.532l17.716-23.21-27.858-8.277a11.73,11.73,0,0,1-6.355-4.658L99.056,42.753,82.641,66.9a11.731,11.731,0,0,1-6.355,4.659L48.429,79.831l17.7,23.21a11.771,11.771,0,0,1,2.427,7.532l-.786,29.275,27.354-9.813a11.783,11.783,0,0,1,7.856,0Z" transform="translate(135.437 76.227)" fill="url(#linear-gradient)"/>
    </g>
  </g>
</svg>
