<svg xmlns="http://www.w3.org/2000/svg" xmlns:xlink="http://www.w3.org/1999/xlink" width="236" height="234" viewBox="0 0 236 234">
  <defs>
    <clipPath id="clip-path">
      <rect id="Rectangle_1505" data-name="Rectangle 1505" width="236" height="234" rx="25" transform="translate(-5780 -8802)" fill="#fff"/>
    </clipPath>
    <linearGradient id="linear-gradient" x1="0.5" x2="0.5" y2="1" gradientUnits="objectBoundingBox">
      <stop offset="0" stop-color="#fc4aab"/>
      <stop offset="1" stop-color="#b83fd1"/>
    </linearGradient>
  </defs>
  <g id="Mask_Group_37" data-name="Mask Group 37" transform="translate(5780 8802)" clip-path="url(#clip-path)">
    <g id="idea_1_" data-name="idea (1)" transform="translate(-5794 -8792)" opacity="0.1">
      <g id="Group_4390" data-name="Group 4390" transform="translate(56.73 56.724)">
        <g id="Group_4389" data-name="Group 4389">
          <path id="Path_18668" data-name="Path 18668" d="M169.162,122.769a62.57,62.57,0,0,0-46.169,45.483c-5.551,22.453.8,45.338,17,61.219,5.728,5.618,9.149,14.622,9.149,24.087v1.511a21.044,21.044,0,0,0,7.031,15.705v12.42a21.118,21.118,0,0,0,21.094,21.094h14.063a21.118,21.118,0,0,0,21.094-21.094v-12.42a21.043,21.043,0,0,0,7.031-15.705v-1.538c0-9.321,3.6-18.5,9.639-24.544a62.876,62.876,0,0,0,18.486-44.7C247.576,143.938,210.184,113.207,169.162,122.769Zm29.195,160.425a7.039,7.039,0,0,1-7.031,7.031H177.263a7.039,7.039,0,0,1-7.031-7.031v-7.031h28.125Zm20.778-64.141c-8.736,8.755-13.747,21.321-13.747,34.478v1.538a7.039,7.039,0,0,1-7.031,7.031H170.232a7.039,7.039,0,0,1-7.031-7.031v-1.511c0-13.359-4.872-25.8-13.365-34.127-12.6-12.361-17.535-30.231-13.191-47.8a48.384,48.384,0,0,1,35.711-35.163c32.19-7.506,61.158,16.524,61.158,47.823A48.9,48.9,0,0,1,219.135,219.053Z" transform="translate(-121.024 -121.012)" fill="url(#linear-gradient)"/>
        </g>
      </g>
      <g id="Group_4392" data-name="Group 4392" transform="translate(33.419 33.419)">
        <g id="Group_4391" data-name="Group 4391">
          <path id="Path_18669" data-name="Path 18669" d="M103.184,93.241,83.3,73.354A7.031,7.031,0,0,0,73.353,83.3l19.888,19.887a7.031,7.031,0,1,0,9.944-9.944Z" transform="translate(-71.294 -71.295)" fill="url(#linear-gradient)"/>
        </g>
      </g>
      <g id="Group_4394" data-name="Group 4394" transform="translate(0 112.969)">
        <g id="Group_4393" data-name="Group 4393">
          <path id="Path_18670" data-name="Path 18670" d="M35.625,241H7.031a7.031,7.031,0,1,0,0,14.062H35.625a7.031,7.031,0,1,0,0-14.062Z" transform="translate(0 -241)" fill="url(#linear-gradient)"/>
        </g>
      </g>
      <g id="Group_4396" data-name="Group 4396" transform="translate(197.344 112.969)">
        <g id="Group_4395" data-name="Group 4395">
          <path id="Path_18671" data-name="Path 18671" d="M456.625,241H428.031a7.031,7.031,0,1,0,0,14.062h28.594a7.031,7.031,0,1,0,0-14.062Z" transform="translate(-421 -241)" fill="url(#linear-gradient)"/>
        </g>
      </g>
      <g id="Group_4398" data-name="Group 4398" transform="translate(172.631 33.419)">
        <g id="Group_4397" data-name="Group 4397">
          <path id="Path_18672" data-name="Path 18672" d="M400.17,73.354a7.031,7.031,0,0,0-9.944,0L370.339,93.241a7.031,7.031,0,0,0,9.944,9.944L400.17,83.3A7.031,7.031,0,0,0,400.17,73.354Z" transform="translate(-368.279 -71.295)" fill="url(#linear-gradient)"/>
        </g>
      </g>
      <g id="Group_4400" data-name="Group 4400" transform="translate(112.969)">
        <g id="Group_4399" data-name="Group 4399">
          <path id="Path_18673" data-name="Path 18673" d="M248.031,0A7.031,7.031,0,0,0,241,7.031V35.625a7.031,7.031,0,1,0,14.062,0V7.031A7.031,7.031,0,0,0,248.031,0Z" transform="translate(-241)" fill="url(#linear-gradient)"/>
        </g>
      </g>
      <g id="Group_4402" data-name="Group 4402" transform="translate(85.79 84.844)">
        <g id="Group_4401" data-name="Group 4401">
          <path id="Path_18674" data-name="Path 18674" d="M217.229,181a38.427,38.427,0,0,0-8.746,1.028,34.685,34.685,0,0,0-25.256,24.834,7.031,7.031,0,1,0,13.649,3.385,20.59,20.59,0,0,1,14.809-14.526,24.362,24.362,0,0,1,5.544-.659,7.031,7.031,0,1,0,0-14.062Z" transform="translate(-183.018 -181)" fill="url(#linear-gradient)"/>
        </g>
      </g>
    </g>
  </g>
</svg>
