<svg xmlns="http://www.w3.org/2000/svg" width="96" height="68" viewBox="0 0 96 68">
  <g id="quote" transform="translate(-1 -5.415)">
    <path id="Path_18659" data-name="Path 18659" d="M18.92,49.833A54.505,54.505,0,0,1,9.032,65.511a4.754,4.754,0,0,0-.448,5.719,4.63,4.63,0,0,0,3.968,2.185,3.89,3.89,0,0,0,1.344-.193c9.408-2.763,31.392-12.562,32-43.983.224-12.112-8.608-22.521-20.1-23.71A22.467,22.467,0,0,0,1,27.954,22.246,22.246,0,0,0,18.92,49.833Z" transform="translate(0 0)" fill="#d3148b"/>
    <path id="Path_18660" data-name="Path 18660" d="M41.738,5.529A22.462,22.462,0,0,0,16.97,27.954,22.246,22.246,0,0,0,34.89,49.833,54.508,54.508,0,0,1,25,65.511a4.753,4.753,0,0,0-.448,5.719,4.63,4.63,0,0,0,3.968,2.185,3.89,3.89,0,0,0,1.344-.193c9.408-2.763,31.392-12.562,32-43.983v-.45c0-11.919-8.736-22.072-20.128-23.26Z" transform="translate(35.134 0)" fill="#d3148b"/>
  </g>
</svg>
