<svg id="Salesforce_logo" data-name="Salesforce logo" xmlns="http://www.w3.org/2000/svg" width="91.448" height="64.038" viewBox="0 0 91.448 64.038">
  <path id="Path_103" data-name="Path 103" d="M109.057,7a16.039,16.039,0,0,1,25.721,3.376,19.458,19.458,0,0,1,7.987-1.687,19.88,19.88,0,1,1-3.87,39.372A14.449,14.449,0,0,1,120,54.011a16.447,16.447,0,0,1-30.577-.74,15.5,15.5,0,0,1-3.131.317,15.475,15.475,0,0,1-7.633-28.817A17.427,17.427,0,0,1,77.179,17.7,17.751,17.751,0,0,1,109.057,7Z" transform="translate(-71.022)" fill="#9b9b9b"/>
  <path id="Path_104" data-name="Path 104" d="M79.3,24.8l.387-1.02c.07-.176.176-.106.245-.07.106.07.176.106.317.211a4.367,4.367,0,0,0,2.429.7c.808,0,1.337-.423,1.337-1.021V23.57c0-.634-.775-.881-1.689-1.161l-.211-.07c-1.233-.352-2.568-.881-2.568-2.429v-.035a2.632,2.632,0,0,1,2.92-2.533h.176a4.983,4.983,0,0,1,2.674.738.171.171,0,0,1,.106.211c-.035.106-.352.916-.387,1.021-.07.176-.247.07-.247.07a5.35,5.35,0,0,0-2.392-.6c-.74,0-1.2.387-1.2.914v.035c0,.6.808.881,1.724,1.162l.176.035c1.231.386,2.533.914,2.533,2.427v.035c0,1.619-1.161,2.6-3.026,2.6a5.682,5.682,0,0,1-2.746-.634,4.193,4.193,0,0,1-.528-.317c-.034-.07-.1-.106-.034-.247Zm27.445,0,.386-1.02a.145.145,0,0,1,.247-.07c.106.07.176.106.317.211a4.365,4.365,0,0,0,2.429.7c.808,0,1.337-.423,1.337-1.021V23.57c0-.634-.775-.881-1.689-1.161l-.211-.07c-1.233-.352-2.568-.881-2.568-2.429v-.035a2.632,2.632,0,0,1,2.92-2.533h.176a4.983,4.983,0,0,1,2.674.738.171.171,0,0,1,.106.211c-.035.106-.352.916-.387,1.021-.07.176-.247.07-.247.07a5.35,5.35,0,0,0-2.392-.6c-.74,0-1.2.387-1.2.914v.035c0,.6.808.881,1.723,1.162l.176.035c1.233.386,2.534.914,2.534,2.427v.035c0,1.619-1.162,2.6-3.026,2.6a5.682,5.682,0,0,1-2.746-.634,4.193,4.193,0,0,1-.528-.317c0-.07-.069-.106-.034-.247Zm20.337-4.819a6.5,6.5,0,0,1,.247,1.687,5.3,5.3,0,0,1-.247,1.689,3.627,3.627,0,0,1-.7,1.372,3.382,3.382,0,0,1-1.2.916,4.658,4.658,0,0,1-3.378,0,3.119,3.119,0,0,1-1.2-.916,3.606,3.606,0,0,1-.7-1.372,6.52,6.52,0,0,1-.247-1.689,5.3,5.3,0,0,1,.247-1.689,3.6,3.6,0,0,1,.7-1.372,3.388,3.388,0,0,1,1.2-.914,4.254,4.254,0,0,1,1.689-.352,3.714,3.714,0,0,1,1.689.352,3.109,3.109,0,0,1,1.2.914,3.639,3.639,0,0,1,.7,1.372ZM125.5,21.635a3.9,3.9,0,0,0-.493-2.11,1.689,1.689,0,0,0-1.513-.74,1.654,1.654,0,0,0-1.513.74,3.892,3.892,0,0,0-.491,2.11,4.11,4.11,0,0,0,.491,2.145,1.918,1.918,0,0,0,3.026,0,3.731,3.731,0,0,0,.493-2.145Zm14.461,2.64.387,1.055c.035.141-.07.176-.07.176a6.082,6.082,0,0,1-2.217.387,3.956,3.956,0,0,1-3.1-1.162,4.5,4.5,0,0,1-1.055-3.131,5.306,5.306,0,0,1,.247-1.689,3.755,3.755,0,0,1,.773-1.372,3.646,3.646,0,0,1,1.266-.914,4.483,4.483,0,0,1,1.759-.352,10.273,10.273,0,0,1,1.162.07,5.653,5.653,0,0,1,1.055.282.141.141,0,0,1,.106.176c-.141.421-.247.7-.387,1.055-.07.176-.176.106-.176.106a4.945,4.945,0,0,0-1.654-.247,1.936,1.936,0,0,0-1.724.775,3.245,3.245,0,0,0-.6,2.075,3.059,3.059,0,0,0,.668,2.145,2.307,2.307,0,0,0,1.795.671,5.843,5.843,0,0,0,.845-.07,2.931,2.931,0,0,0,.738-.211c-.035.07.106.035.176.176Zm7.987-4.611a4.816,4.816,0,0,1,.141,2.288.138.138,0,0,1-.141.141h-5.314a2.37,2.37,0,0,0,.634,1.759,2.488,2.488,0,0,0,1.83.632,5.2,5.2,0,0,0,2.18-.386.189.189,0,0,1,.211.106l.352.985c.07.176,0,.211-.035.247a5.484,5.484,0,0,1-2.674.528,5.306,5.306,0,0,1-1.936-.317,3.545,3.545,0,0,1-1.337-.881,3.917,3.917,0,0,1-.775-1.337,5.908,5.908,0,0,1,0-3.378,3.627,3.627,0,0,1,.7-1.372,3.21,3.21,0,0,1,1.231-.914,3.926,3.926,0,0,1,1.759-.352,3.416,3.416,0,0,1,1.513.317,3.1,3.1,0,0,1,1.02.773,2.887,2.887,0,0,1,.634,1.162Zm-5.278,1.127h3.765a2.8,2.8,0,0,0-.352-1.266,1.617,1.617,0,0,0-1.478-.775,1.678,1.678,0,0,0-1.513.775,3.546,3.546,0,0,0-.423,1.265Zm-37.19-1.127a5.758,5.758,0,0,1,.176,2.288.139.139,0,0,1-.142.141H100.2a2.376,2.376,0,0,0,.632,1.759,2.491,2.491,0,0,0,1.83.632,5.22,5.22,0,0,0,2.182-.386.189.189,0,0,1,.211.106l.352.985c.069.176,0,.211-.035.247a5.49,5.49,0,0,1-2.674.528,5.315,5.315,0,0,1-1.937-.317,3.545,3.545,0,0,1-1.337-.881,3.917,3.917,0,0,1-.773-1.337,5.909,5.909,0,0,1,0-3.378,3.627,3.627,0,0,1,.7-1.372,3.186,3.186,0,0,1,1.231-.914,3.914,3.914,0,0,1,1.758-.352,3.423,3.423,0,0,1,1.514.317,3.133,3.133,0,0,1,1.02.773,2.892,2.892,0,0,1,.6,1.162ZM100.2,20.791H104a2.783,2.783,0,0,0-.352-1.266,1.615,1.615,0,0,0-1.476-.775,1.675,1.675,0,0,0-1.513.775,2.969,2.969,0,0,0-.458,1.265Zm-9.324-.282s.421.035.881.106V20.4c0-.7-.142-1.057-.424-1.266a2.2,2.2,0,0,0-1.3-.352,5.808,5.808,0,0,0-2.321.528.109.109,0,0,1-.07.035s-.141.035-.176-.07l-.387-1.021a.157.157,0,0,1,.035-.211,4.879,4.879,0,0,1,1.619-.6,9.525,9.525,0,0,1,1.409-.141,3.574,3.574,0,0,1,2.427.74,2.96,2.96,0,0,1,.844,2.357v4.856s0,.141-.106.176a3.867,3.867,0,0,1-.387.106c-.176.035-.808.176-1.337.247a8.147,8.147,0,0,1-1.617.141,5.785,5.785,0,0,1-1.409-.141,3.394,3.394,0,0,1-1.09-.458,2.382,2.382,0,0,1-.7-.845,2.5,2.5,0,0,1-.247-1.2,2.756,2.756,0,0,1,.282-1.231,2.645,2.645,0,0,1,.775-.881,4.026,4.026,0,0,1,1.09-.528,5.283,5.283,0,0,1,1.3-.175c.423.035.7.035.916.035Zm-2.112,3.73a2.362,2.362,0,0,0,1.548.315,10.1,10.1,0,0,0,1.442-.176V21.952a10.384,10.384,0,0,0-1.442-.106,2.5,2.5,0,0,0-1.548.387,1.139,1.139,0,0,0-.458,1.02,1.387,1.387,0,0,0,.176.7C88.516,24.028,88.551,24.1,88.762,24.24ZM133.624,17.8c-.035.139-.317.881-.387,1.125a.193.193,0,0,1-.211.141,3.214,3.214,0,0,0-.6-.07,2.847,2.847,0,0,0-.7.106,1.828,1.828,0,0,0-.668.387,1.68,1.68,0,0,0-.458.773,4.913,4.913,0,0,0-.176,1.409V25.61a.166.166,0,0,1-.176.176h-1.407a.166.166,0,0,1-.176-.176V17.695a.161.161,0,0,1,.141-.176h1.372c.106,0,.141.07.141.176v.632a2.335,2.335,0,0,1,.879-.668,2.789,2.789,0,0,1,1.374-.211,5.643,5.643,0,0,1,.879.141c.141.035.211.07.176.211Zm-13.054-3.66a.141.141,0,0,1,.106.176l-.423,1.125c-.035.07-.07.141-.247.07-.035,0-.1-.035-.28-.07a1.579,1.579,0,0,0-.423-.035,2.737,2.737,0,0,0-.564.07.9.9,0,0,0-.456.282,1.761,1.761,0,0,0-.387.562,5.267,5.267,0,0,0-.282,1.2H119.3c.141,0,.176.07.176.176l-.211,1.09c-.035.176-.176.141-.176.141h-1.759l-1.125,6.791a13.081,13.081,0,0,1-.458,1.793,3.39,3.39,0,0,1-.7,1.2,2.062,2.062,0,0,1-.986.668,3.6,3.6,0,0,1-1.3.211,3.021,3.021,0,0,1-.775-.07,2.015,2.015,0,0,1-.491-.141.157.157,0,0,1-.07-.211c.035-.1.352-.949.387-1.089.069-.142.176-.072.176-.072.1.035.176.07.28.106a2.155,2.155,0,0,0,1.057-.07,1.055,1.055,0,0,0,.491-.387,3.5,3.5,0,0,0,.387-.738,11.831,11.831,0,0,0,.317-1.3l1.2-6.65h-1.161c-.141,0-.176-.07-.176-.176l.211-1.09c.035-.176.176-.141.176-.141h1.2l.07-.352a4.332,4.332,0,0,1,1.055-2.393A3.09,3.09,0,0,1,119.339,14a4.359,4.359,0,0,1,.738.07.845.845,0,0,1,.493.07ZM96.855,25.575a.161.161,0,0,1-.141.176H95.305c-.1,0-.139-.07-.139-.176V14.28c0-.07.07-.176.141-.176h1.407c.106,0,.141.07.141.176Z" transform="translate(-66.067 8.413)" fill="#fff"/>
</svg>
