<svg xmlns="http://www.w3.org/2000/svg" width="16" height="10" viewBox="0 0 16 10">
  <g id="turkey" transform="translate(0 -88.275)">
    <path id="Path_16717" data-name="Path 16717" d="M14.8,88.275H1.2A1.172,1.172,0,0,0,0,89.418v7.714a1.172,1.172,0,0,0,1.2,1.143H14.8A1.172,1.172,0,0,0,16,97.132V89.418A1.172,1.172,0,0,0,14.8,88.275Z" fill="#ff4b55"/>
    <g id="Group_147" data-name="Group 147" transform="translate(2.083 90.643)">
      <path id="Path_16718" data-name="Path 16718" d="M229.689,225.244l.432.54.675-.216a.04.04,0,0,1,.047.06l-.4.559.424.546a.04.04,0,0,1-.045.061l-.682-.194-.413.553a.042.042,0,0,1-.075-.022l-.017-.679-.679-.2a.039.039,0,0,1,0-.075l.672-.226-.006-.679A.042.042,0,0,1,229.689,225.244Z" transform="translate(-223.85 -223.514)" fill="#f5f5f5"/>
      <path id="Path_16719" data-name="Path 16719" d="M70.095,172.461a2.109,2.109,0,1,1,0-4.213,2.239,2.239,0,0,1,1.22.358c.053.034.114-.032.07-.077a2.8,2.8,0,0,0-2.075-.8,2.715,2.715,0,0,0-2.656,2.457,2.687,2.687,0,0,0,2.752,2.8,2.8,2.8,0,0,0,1.981-.808c.044-.044-.017-.11-.07-.076A2.241,2.241,0,0,1,70.095,172.461Z" transform="translate(-66.648 -167.723)" fill="#f5f5f5"/>
    </g>
  </g>
</svg>
