<svg xmlns="http://www.w3.org/2000/svg" width="24" height="20" viewBox="0 0 24 20">
  <g id="twitter" transform="translate(-4 -8)">
    <path id="Path_16729" data-name="Path 16729" d="M11.54,28c9.056,0,14.011-7.7,14.011-14.36,0-.216,0-.433-.01-.649A10.174,10.174,0,0,0,28,10.371a9.793,9.793,0,0,1-2.832.8,5.058,5.058,0,0,0,2.17-2.8A9.652,9.652,0,0,1,24.206,9.6,4.86,4.86,0,0,0,20.616,8a4.993,4.993,0,0,0-4.927,5.049,5.709,5.709,0,0,0,.125,1.151A13.874,13.874,0,0,1,5.662,8.925,5.137,5.137,0,0,0,7.19,15.666a4.889,4.889,0,0,1-2.23-.63v.069a5.029,5.029,0,0,0,3.948,4.951,4.692,4.692,0,0,1-1.3.177,4.751,4.751,0,0,1-.924-.089,4.941,4.941,0,0,0,4.6,3.5,9.726,9.726,0,0,1-6.118,2.164A9.246,9.246,0,0,1,4,25.746,13.762,13.762,0,0,0,11.54,28" fill="#1f0242"/>
  </g>
</svg>
