<svg xmlns="http://www.w3.org/2000/svg" width="34.334" height="28.612" viewBox="0 0 34.334 28.612">
  <g id="twitter" transform="translate(0)">
    <path id="Path_16729" data-name="Path 16729" d="M14.786,36.612c12.956,0,20.044-11.012,20.044-20.543,0-.31,0-.619-.014-.929a14.555,14.555,0,0,0,3.518-3.747,14.009,14.009,0,0,1-4.051,1.142,7.236,7.236,0,0,0,3.1-4,13.808,13.808,0,0,1-4.481,1.747A6.953,6.953,0,0,0,27.771,8a7.143,7.143,0,0,0-7.049,7.224A8.167,8.167,0,0,0,20.9,16.87,19.848,19.848,0,0,1,6.378,9.323a7.349,7.349,0,0,0,2.185,9.645,6.994,6.994,0,0,1-3.19-.9v.1a7.2,7.2,0,0,0,5.648,7.083,6.713,6.713,0,0,1-1.854.253,6.8,6.8,0,0,1-1.322-.127,7.069,7.069,0,0,0,6.582,5.014,13.914,13.914,0,0,1-8.752,3.1A13.228,13.228,0,0,1,4,33.387a19.688,19.688,0,0,0,10.786,3.225" transform="translate(-4 -8)" fill="#1f0242"/>
  </g>
</svg>
